<?xml version="1.0" encoding="utf-8"?>
<!-- Generator: Adobe Illustrator 24.3.0, SVG Export Plug-In . SVG Version: 6.00 Build 0)  -->
<svg version="1.1" id="Layer_1" xmlns="http://www.w3.org/2000/svg" xmlns:xlink="http://www.w3.org/1999/xlink" x="0px" y="0px"
	 viewBox="0 0 137 80" style="enable-background:new 0 0 137 80;" xml:space="preserve">
<style type="text/css">
	.st0{fill-rule:evenodd;clip-rule:evenodd;fill:#FFFFFF;}
	.st1{fill-rule:evenodd;clip-rule:evenodd;fill:#C49A64;}
	.st2{fill:#FFFFFF;}
	.st3{font-family:'Montserrat-Light';}
	.st4{font-size:14.7797px;}
</style>
<g>
	<text transform="matrix(1 0 0 1 40.5814 44.367)" class="st2 st3 st4">ESTATE</text>
	<g>
		<path class="st2" d="M56.55,53.98c0.11-0.11,0.22-0.18,0.33-0.22c0.22-0.09,0.42-0.09,0.59-0.07c0.35,0.05,0.59,0.2,0.75,0.3
			c0.16,0.11,0.24,0.18,0.24,0.18c0,0-0.1-0.03-0.27-0.06c-0.17-0.03-0.43-0.06-0.71-0.01c-0.14,0.03-0.29,0.08-0.41,0.17
			c-0.12,0.09-0.2,0.23-0.2,0.33c0,0.05,0.01,0.1,0.03,0.15l0.06,0.12c0.03,0.05,0.05,0.09,0.08,0.14c0.12,0.18,0.25,0.33,0.41,0.44
			c0.32,0.23,0.72,0.27,1.09,0.23c0.37-0.04,0.72-0.17,1-0.3c0.57-0.26,0.9-0.55,0.9-0.54c0-0.01-0.2,0.43-0.74,0.91
			c-0.27,0.24-0.62,0.48-1.06,0.62c-0.22,0.07-0.47,0.11-0.74,0.09c-0.26-0.02-0.55-0.11-0.8-0.28c-0.26-0.18-0.47-0.43-0.61-0.7
			c-0.04-0.07-0.07-0.14-0.1-0.2c-0.03-0.07-0.06-0.13-0.09-0.23c-0.06-0.19-0.07-0.42-0.02-0.61
			C56.35,54.24,56.45,54.09,56.55,53.98z"/>
		<path class="st2" d="M78.45,55.68c0.37,0.04,0.77,0,1.09-0.23c0.16-0.11,0.3-0.26,0.41-0.44c0.03-0.04,0.06-0.09,0.08-0.14
			l0.06-0.12c0.02-0.05,0.03-0.1,0.03-0.15c0-0.1-0.08-0.24-0.2-0.33c-0.12-0.09-0.27-0.14-0.41-0.17
			c-0.28-0.05-0.54-0.02-0.71,0.01c-0.17,0.03-0.27,0.06-0.27,0.06c0,0,0.08-0.07,0.24-0.18c0.16-0.1,0.4-0.25,0.75-0.3
			c0.17-0.02,0.38-0.02,0.59,0.07c0.11,0.04,0.22,0.11,0.33,0.22c0.1,0.11,0.2,0.26,0.25,0.46c0.05,0.19,0.04,0.42-0.02,0.61
			c-0.03,0.1-0.06,0.16-0.09,0.23c-0.03,0.07-0.06,0.14-0.1,0.2c-0.15,0.27-0.35,0.52-0.61,0.7c-0.26,0.18-0.54,0.26-0.8,0.28
			c-0.26,0.02-0.51-0.02-0.74-0.09c-0.45-0.14-0.8-0.39-1.06-0.62c-0.53-0.48-0.74-0.92-0.74-0.91c0-0.01,0.33,0.28,0.9,0.54
			C77.73,55.52,78.07,55.64,78.45,55.68z"/>
		<path class="st2" d="M67.24,54.17c0.02-0.11,0.05-0.22,0.08-0.32c0.07-0.21,0.16-0.4,0.27-0.56c0.22-0.33,0.53-0.56,0.87-0.56
			c-0.34,0-0.63,0.29-0.76,0.64c-0.07,0.18-0.1,0.37-0.1,0.55c0,0.09,0,0.19,0.02,0.27c0.01,0.03,0.01,0.11,0.02,0.13
			c0.01,0.04,0.02,0.07,0.03,0.11C67.78,54.72,68,55,68.2,55.27l0.29,0.37c0.09-0.12,0.18-0.25,0.27-0.37
			c0.19-0.28,0.39-0.57,0.49-0.86c0.09-0.31,0.09-0.72-0.05-1.06c-0.13-0.34-0.42-0.63-0.75-0.63c0.33,0,0.64,0.22,0.86,0.55
			c0.11,0.16,0.2,0.35,0.27,0.55c0.07,0.21,0.12,0.41,0.13,0.66c0,0.5-0.12,0.92-0.27,1.31c-0.16,0.39-0.34,0.74-0.58,1.07
			l-0.33,0.45l-0.35-0.42c-0.26-0.32-0.47-0.65-0.65-1.04c-0.17-0.38-0.32-0.81-0.33-1.31c0-0.06,0-0.13,0.01-0.19
			C67.22,54.26,67.23,54.24,67.24,54.17z"/>
		<path class="st2" d="M100.97,52.42c0,0-0.01-0.01-0.04-0.01c0.03-0.01,0.04-0.01,0.04-0.01c0,0-0.04,0-0.1,0
			c-0.1-0.02-0.26-0.06-0.48-0.1c-0.18-0.03-0.39-0.07-0.61-0.15c-0.21-0.07-0.45-0.19-0.56-0.4c-0.05-0.1-0.08-0.25-0.08-0.36
			c0-0.12,0.04-0.21,0.11-0.28c0.07-0.07,0.16-0.1,0.25-0.1c0.09,0,0.18,0.02,0.25,0.06c0.15,0.08,0.24,0.22,0.28,0.32
			c0.04,0.1,0.05,0.17,0.05,0.17c0,0,0.01-0.06-0.02-0.18c-0.02-0.11-0.08-0.29-0.25-0.43c-0.08-0.07-0.19-0.12-0.31-0.13
			c-0.12-0.02-0.26,0-0.39,0.1C99,51,98.91,51.19,98.91,51.37c-0.01,0.09,0,0.18,0.02,0.27c0.02,0.08,0.04,0.17,0.09,0.26
			c0.09,0.17,0.22,0.28,0.35,0.35c0.13,0.07,0.26,0.11,0.38,0.14c0.03,0.01,0.05,0.01,0.08,0.01c-1.77-0.04-3.54-0.07-5.32-0.1
			c0,0-0.17-0.1-0.49-0.23c-0.32-0.13-0.8-0.3-1.4-0.41c-0.6-0.11-1.34-0.16-2.15-0.03c-0.4,0.07-0.83,0.18-1.25,0.38
			c-0.13,0.06-0.25,0.13-0.38,0.21l-4.76-0.05c-0.26,0-0.51-0.01-0.77-0.01C82.98,52.05,82.64,52,82.29,52
			c-0.43-0.01-0.85,0.05-1.28,0.14c-1.85-0.01-3.69-0.01-5.54-0.02l-5.45-0.02c-0.21-0.19-0.43-0.37-0.66-0.51
			c-0.02-0.01-0.04-0.02-0.05-0.03c0.01,0,0.02-0.01,0.03-0.01c0.47-0.15,0.93-0.24,1.35-0.27c0.84-0.07,1.52,0.12,1.95,0.36
			c0.43,0.24,0.63,0.47,0.63,0.46c0,0.01-0.17-0.26-0.58-0.58c-0.41-0.32-1.11-0.62-2-0.66c-0.44-0.02-0.93,0.02-1.44,0.13
			c-0.24,0.05-0.49,0.12-0.74,0.21c-0.25-0.09-0.5-0.16-0.74-0.21c-0.51-0.11-1-0.15-1.44-0.13c-0.89,0.04-1.59,0.34-2,0.66
			c-0.42,0.32-0.58,0.59-0.58,0.58c0,0.01,0.2-0.23,0.63-0.46c0.43-0.24,1.11-0.42,1.95-0.36c0.42,0.03,0.87,0.12,1.35,0.27
			c0.01,0,0.02,0.01,0.03,0.01c-0.02,0.01-0.04,0.02-0.05,0.03c-0.24,0.14-0.46,0.32-0.66,0.51l-5.45,0.02
			c-1.85,0.01-3.69,0.01-5.54,0.02c-0.42-0.09-0.85-0.15-1.28-0.14c-0.34,0.01-0.68,0.06-1.01,0.16c-0.26,0-0.51,0-0.77,0.01
			l-4.76,0.05c-0.13-0.08-0.25-0.15-0.38-0.21c-0.42-0.2-0.84-0.31-1.25-0.38c-0.81-0.13-1.55-0.08-2.15,0.03
			c-0.6,0.11-1.08,0.28-1.4,0.41c-0.32,0.13-0.49,0.23-0.49,0.23c-1.86,0.03-3.73,0.06-5.59,0.11c0.04-0.01,0.08-0.01,0.11-0.02
			c0.12-0.03,0.25-0.07,0.38-0.14c0.13-0.07,0.26-0.18,0.35-0.35c0.04-0.08,0.07-0.18,0.09-0.26c0.02-0.09,0.03-0.17,0.02-0.27
			c-0.01-0.18-0.09-0.37-0.22-0.46c-0.13-0.1-0.27-0.11-0.39-0.1c-0.12,0.02-0.22,0.07-0.31,0.13c-0.17,0.13-0.23,0.31-0.25,0.43
			c-0.02,0.12-0.01,0.18-0.02,0.18c0,0,0.01-0.07,0.05-0.17c0.04-0.1,0.13-0.24,0.28-0.32c0.07-0.04,0.16-0.06,0.25-0.06
			c0.09,0,0.19,0.03,0.25,0.1c0.07,0.06,0.11,0.16,0.11,0.28c0,0.11-0.03,0.26-0.08,0.36c-0.11,0.21-0.35,0.33-0.56,0.4
			c-0.22,0.07-0.43,0.11-0.61,0.15c-0.21,0.04-0.38,0.07-0.48,0.1c-0.06,0-0.1,0-0.1,0c0,0,0.01,0.01,0.04,0.01
			c-0.03,0.01-0.04,0.01-0.04,0.01c0,0,0.04,0,0.1,0c0.01,0,0.01,0,0.02,0c-0.06,0-0.11,0-0.17,0c0.07,0,0.14,0,0.2,0
			c0.1,0.02,0.24,0.05,0.42,0.08c0.18,0.03,0.39,0.07,0.61,0.15c0.21,0.07,0.45,0.19,0.56,0.4c0.05,0.1,0.08,0.25,0.08,0.36
			c0,0.12-0.04,0.21-0.11,0.28c-0.07,0.07-0.16,0.1-0.25,0.1c-0.09,0-0.18-0.02-0.25-0.06c-0.15-0.08-0.24-0.22-0.28-0.32
			c-0.04-0.1-0.05-0.17-0.05-0.17c0,0-0.01,0.06,0.02,0.18c0.02,0.11,0.08,0.29,0.25,0.43c0.08,0.07,0.19,0.12,0.31,0.13
			c0.12,0.02,0.26,0,0.39-0.1c0.13-0.09,0.22-0.28,0.22-0.46c0.01-0.09,0-0.18-0.02-0.27c-0.02-0.08-0.04-0.17-0.09-0.26
			c-0.09-0.17-0.22-0.28-0.35-0.35c-0.09-0.05-0.17-0.08-0.26-0.1c2.4,0.05,4.8,0.09,7.19,0.13l3.75,0.04
			c0.23,0.16,0.45,0.35,0.64,0.58c0.12,0.15,0.23,0.31,0.31,0.48c0.02,0.04,0.04,0.09,0.06,0.13c0.01,0.02,0.02,0.04,0.03,0.07
			l0.02,0.06c0.01,0.02,0.02,0.05,0.02,0.08c0.06,0.2,0.12,0.44,0.17,0.65c0.11-0.21,0.22-0.45,0.33-0.64l0.04-0.07l0.02-0.03
			l0.04-0.06c0.03-0.04,0.06-0.08,0.09-0.12c0.12-0.16,0.26-0.3,0.4-0.42c0.29-0.24,0.61-0.4,0.92-0.5
			c0.19-0.06,0.37-0.11,0.55-0.14l1.04,0.01c-0.06,0.06-0.12,0.13-0.18,0.2c-0.26,0.32-0.46,0.68-0.58,1.1
			c-0.12,0.4-0.14,0.9,0.04,1.3c0.17,0.4,0.47,0.63,0.74,0.77c0.27,0.14,0.56,0.22,0.84,0.2c0.28-0.02,0.55-0.15,0.74-0.36
			c0.19-0.21,0.3-0.48,0.35-0.73c0.1-0.52-0.08-0.98-0.28-1.23c-0.21-0.25-0.42-0.35-0.56-0.4c-0.14-0.05-0.22-0.06-0.22-0.06
			c0,0,0.07,0.02,0.21,0.1c0.13,0.07,0.33,0.2,0.49,0.45c0.16,0.25,0.26,0.66,0.15,1.07c-0.06,0.2-0.16,0.4-0.32,0.54
			c-0.15,0.14-0.35,0.22-0.57,0.21c-0.21-0.01-0.44-0.09-0.66-0.23c-0.22-0.14-0.41-0.33-0.49-0.57c-0.18-0.48,0.1-1.18,0.52-1.64
			c0.1-0.12,0.22-0.22,0.34-0.29c0.11-0.06,0.27-0.13,0.42-0.18c0.3-0.09,0.62-0.13,0.95-0.13c0.67,0.01,1.37,0.19,2.08,0.43
			c0.72,0.24,1.41,0.52,2.11,0.77c0.57,0.2,1.13,0.38,1.69,0.47c0,0,0,0.01,0,0.01c0.02,0.18,0.05,0.36,0.11,0.54
			c0.11,0.37,0.35,0.71,0.65,0.91c0.3,0.21,0.64,0.3,0.97,0.32c0.33,0.02,0.66-0.02,0.99-0.09c0.33-0.08,0.64-0.19,0.96-0.35
			c0.33-0.16,0.63-0.39,0.91-0.64c0.56-0.51,1-1.1,1.43-1.62c0.43-0.53,0.84-1.02,1.29-1.32c0.19-0.13,0.39-0.24,0.6-0.33
			c0.2,0.1,0.4,0.2,0.6,0.33c0.45,0.3,0.86,0.79,1.29,1.32c0.43,0.53,0.88,1.11,1.43,1.62c0.28,0.25,0.58,0.48,0.91,0.64
			c0.32,0.16,0.64,0.27,0.96,0.35c0.32,0.08,0.65,0.12,0.99,0.09c0.33-0.02,0.67-0.11,0.97-0.32c0.3-0.2,0.54-0.55,0.65-0.91
			c0.06-0.18,0.09-0.37,0.11-0.54c0,0,0-0.01,0-0.01c0.57-0.09,1.13-0.27,1.69-0.47c0.69-0.25,1.39-0.53,2.11-0.77
			c0.71-0.24,1.42-0.42,2.08-0.43c0.33,0,0.65,0.03,0.95,0.13c0.15,0.05,0.3,0.11,0.42,0.18c0.11,0.07,0.23,0.17,0.34,0.29
			c0.42,0.46,0.7,1.16,0.52,1.64c-0.08,0.24-0.27,0.44-0.49,0.57c-0.22,0.14-0.44,0.22-0.66,0.23c-0.21,0.01-0.41-0.07-0.57-0.21
			c-0.15-0.14-0.26-0.34-0.32-0.54c-0.11-0.41-0.01-0.82,0.15-1.07c0.16-0.26,0.36-0.38,0.49-0.45c0.13-0.07,0.21-0.09,0.21-0.1
			c0,0-0.08,0.01-0.22,0.06c-0.14,0.05-0.35,0.15-0.56,0.4c-0.2,0.25-0.38,0.7-0.28,1.23c0.05,0.26,0.16,0.52,0.35,0.73
			c0.19,0.21,0.46,0.35,0.74,0.36c0.28,0.02,0.57-0.06,0.84-0.2c0.27-0.14,0.57-0.37,0.74-0.77c0.18-0.4,0.16-0.9,0.04-1.3
			c-0.12-0.41-0.32-0.78-0.58-1.1c-0.06-0.07-0.11-0.13-0.18-0.2l1.04-0.01c0.18,0.04,0.36,0.08,0.55,0.14
			c0.31,0.11,0.63,0.26,0.92,0.5c0.14,0.12,0.28,0.26,0.4,0.42c0.03,0.04,0.06,0.08,0.09,0.12l0.04,0.06l0.02,0.03l0.04,0.07
			c0.11,0.19,0.22,0.43,0.33,0.64c0.05-0.2,0.11-0.45,0.17-0.65c0.01-0.03,0.01-0.05,0.02-0.08l0.02-0.06
			c0.01-0.02,0.02-0.04,0.03-0.07c0.02-0.04,0.04-0.09,0.06-0.13c0.08-0.17,0.19-0.33,0.31-0.48c0.19-0.23,0.41-0.42,0.64-0.58
			l3.75-0.04c2.31-0.05,4.62-0.08,6.93-0.13c-0.08,0.02-0.16,0.05-0.24,0.1c-0.13,0.07-0.26,0.18-0.35,0.35
			c-0.04,0.08-0.07,0.18-0.09,0.26c-0.02,0.09-0.03,0.17-0.02,0.27c0.01,0.18,0.09,0.37,0.22,0.46c0.13,0.1,0.27,0.11,0.39,0.1
			c0.12-0.02,0.22-0.07,0.31-0.13c0.17-0.13,0.23-0.31,0.25-0.43c0.02-0.12,0.01-0.18,0.02-0.18c0,0-0.01,0.06-0.05,0.17
			c-0.04,0.1-0.13,0.24-0.28,0.32c-0.07,0.04-0.16,0.06-0.25,0.06c-0.09,0-0.19-0.03-0.25-0.1c-0.07-0.06-0.11-0.16-0.11-0.28
			c0-0.11,0.03-0.26,0.08-0.36c0.11-0.21,0.35-0.33,0.56-0.4c0.22-0.07,0.43-0.11,0.61-0.15c0.16-0.03,0.29-0.06,0.39-0.08
			c0.16,0,0.32-0.01,0.47-0.01c-0.13,0-0.26-0.01-0.39-0.01C100.94,52.42,100.97,52.42,100.97,52.42z M47.31,52.23l-2.98,0.03
			c-0.61,0.01-1.22,0.02-1.84,0.03c0.01,0.01,0.72-0.31,1.91-0.43c0.6-0.05,1.31-0.05,2.08,0.11
			C46.76,52.04,47.04,52.12,47.31,52.23z M50.7,52.67c-0.2,0.09-0.41,0.2-0.6,0.35c-0.17,0.13-0.32,0.28-0.47,0.46
			c-0.04,0.04-0.07,0.09-0.1,0.14l-0.08,0.11c0,0-0.01,0.01-0.01,0.01l0-0.01c0,0,0,0,0,0c0,0,0,0-0.01-0.01
			c-0.01-0.03-0.02-0.05-0.03-0.08c-0.02-0.05-0.04-0.1-0.07-0.15c-0.1-0.2-0.22-0.39-0.36-0.56c-0.08-0.1-0.17-0.19-0.26-0.27
			L50.7,52.67z M61.11,54.52c0.62,0.03,1.21-0.02,1.76-0.11c-0.04,0.11-0.09,0.2-0.13,0.27c-0.07,0.13-0.12,0.19-0.11,0.19
			c0,0,0.05-0.05,0.14-0.17c0.05-0.07,0.12-0.17,0.19-0.31c0.56-0.11,1.07-0.26,1.53-0.45c0.66-0.27,1.2-0.6,1.62-0.92
			c-0.44,0.51-0.86,1.04-1.34,1.47c-0.25,0.22-0.5,0.42-0.76,0.55c-0.27,0.14-0.56,0.25-0.84,0.33c-0.56,0.15-1.13,0.18-1.54-0.06
			c-0.2-0.12-0.35-0.31-0.44-0.55C61.16,54.69,61.13,54.61,61.11,54.52z M61.26,52.74c-0.11,0.06-0.22,0.14-0.31,0.25
			c-0.17,0.19-0.29,0.46-0.34,0.74c-0.49-0.12-1-0.3-1.52-0.5c-0.41-0.16-0.83-0.33-1.26-0.5C58.97,52.73,60.12,52.73,61.26,52.74z
			 M62.71,53.24c0.12,0.11,0.21,0.25,0.24,0.4c0.02,0.06,0.02,0.12,0.03,0.18c-0.6,0.07-1.25,0.08-1.92,0
			c0.02-0.18,0.08-0.35,0.18-0.48c0.12-0.16,0.3-0.27,0.48-0.32C62.09,52.92,62.47,53.02,62.71,53.24z M66.16,52.76
			c-0.45,0.28-1.04,0.57-1.76,0.78c-0.39,0.11-0.82,0.2-1.27,0.26c0-0.07,0-0.13-0.01-0.2c-0.03-0.2-0.12-0.4-0.26-0.56
			c-0.1-0.12-0.23-0.22-0.37-0.29L66.16,52.76z M70.89,53.02c0.42,0.32,0.95,0.65,1.62,0.92c0.46,0.18,0.97,0.34,1.53,0.45
			c0.07,0.13,0.14,0.23,0.19,0.31c0.09,0.11,0.14,0.17,0.14,0.17c0,0-0.04-0.06-0.11-0.19c-0.04-0.07-0.08-0.16-0.13-0.27
			c0.55,0.1,1.13,0.14,1.76,0.11c-0.02,0.09-0.04,0.17-0.07,0.25c-0.09,0.24-0.24,0.43-0.44,0.55c-0.41,0.24-0.98,0.22-1.54,0.06
			c-0.28-0.08-0.57-0.19-0.84-0.33c-0.26-0.13-0.51-0.33-0.76-0.55C71.76,54.06,71.33,53.53,70.89,53.02z M74.52,52.74
			c-0.14,0.07-0.27,0.17-0.37,0.29c-0.14,0.16-0.23,0.36-0.26,0.56c-0.01,0.07-0.01,0.14-0.01,0.2c-0.46-0.06-0.88-0.15-1.27-0.26
			c-0.72-0.21-1.31-0.5-1.76-0.78L74.52,52.74z M75.76,53.34c0.09,0.13,0.15,0.29,0.18,0.48c-0.67,0.08-1.32,0.07-1.92,0
			c0-0.06,0.01-0.12,0.03-0.18c0.04-0.15,0.12-0.29,0.24-0.4c0.24-0.22,0.62-0.32,0.99-0.22C75.46,53.06,75.64,53.17,75.76,53.34z
			 M79.17,52.73c-0.43,0.17-0.85,0.34-1.26,0.5c-0.52,0.2-1.03,0.39-1.52,0.5c-0.05-0.28-0.17-0.55-0.34-0.74
			c-0.1-0.11-0.2-0.19-0.31-0.25C76.88,52.73,78.03,52.73,79.17,52.73z M88.28,52.64c-0.09,0.08-0.17,0.18-0.26,0.27
			c-0.14,0.17-0.26,0.35-0.36,0.56c-0.03,0.05-0.05,0.1-0.07,0.15c-0.01,0.03-0.02,0.05-0.03,0.08c-0.01,0.02-0.01,0.01-0.01,0.01
			c0,0,0,0,0,0l0,0.01c0,0,0,0-0.01-0.01l-0.08-0.11c-0.03-0.05-0.07-0.09-0.1-0.14c-0.14-0.18-0.3-0.33-0.47-0.46
			c-0.2-0.15-0.4-0.26-0.6-0.35L88.28,52.64z M94.5,52.3c-0.61-0.01-1.22-0.02-1.84-0.03l-2.98-0.03c0.27-0.11,0.55-0.19,0.82-0.25
			c0.77-0.17,1.49-0.17,2.08-0.11C93.78,51.98,94.49,52.3,94.5,52.3z"/>
	</g>
	<g>
		<path class="st2" d="M56.55,26.02c0.11,0.11,0.22,0.18,0.33,0.22c0.22,0.09,0.42,0.09,0.59,0.07c0.35-0.05,0.59-0.2,0.75-0.3
			c0.16-0.11,0.24-0.18,0.24-0.18c0,0-0.1,0.03-0.27,0.06c-0.17,0.03-0.43,0.06-0.71,0.01c-0.14-0.03-0.29-0.08-0.41-0.17
			c-0.12-0.09-0.2-0.23-0.2-0.33c0-0.05,0.01-0.1,0.03-0.15l0.06-0.12c0.03-0.05,0.05-0.09,0.08-0.14c0.12-0.18,0.25-0.33,0.41-0.44
			c0.32-0.23,0.72-0.27,1.09-0.23c0.37,0.04,0.72,0.17,1,0.3c0.57,0.26,0.9,0.55,0.9,0.54c0,0.01-0.2-0.43-0.74-0.91
			c-0.27-0.24-0.62-0.48-1.06-0.62c-0.22-0.07-0.47-0.11-0.74-0.09c-0.26,0.02-0.55,0.11-0.8,0.28c-0.26,0.18-0.47,0.43-0.61,0.7
			c-0.04,0.07-0.07,0.14-0.1,0.2c-0.03,0.07-0.06,0.13-0.09,0.23c-0.06,0.19-0.07,0.42-0.02,0.61
			C56.35,25.76,56.45,25.91,56.55,26.02z"/>
		<path class="st2" d="M78.45,24.32c0.37-0.04,0.77,0,1.09,0.23c0.16,0.11,0.3,0.26,0.41,0.44c0.03,0.04,0.06,0.09,0.08,0.14
			l0.06,0.12c0.02,0.05,0.03,0.1,0.03,0.15c0,0.1-0.08,0.24-0.2,0.33c-0.12,0.09-0.27,0.14-0.41,0.17
			c-0.28,0.05-0.54,0.02-0.71-0.01c-0.17-0.03-0.27-0.06-0.27-0.06c0,0,0.08,0.07,0.24,0.18c0.16,0.1,0.4,0.25,0.75,0.3
			c0.17,0.02,0.38,0.02,0.59-0.07c0.11-0.04,0.22-0.11,0.33-0.22c0.1-0.11,0.2-0.26,0.25-0.46c0.05-0.19,0.04-0.42-0.02-0.61
			c-0.03-0.1-0.06-0.16-0.09-0.23c-0.03-0.07-0.06-0.14-0.1-0.2c-0.15-0.27-0.35-0.52-0.61-0.7c-0.26-0.18-0.54-0.26-0.8-0.28
			c-0.26-0.02-0.51,0.02-0.74,0.09c-0.45,0.14-0.8,0.39-1.06,0.62c-0.53,0.48-0.74,0.92-0.74,0.91c0,0.01,0.33-0.28,0.9-0.54
			C77.73,24.48,78.07,24.36,78.45,24.32z"/>
		<path class="st2" d="M67.24,25.83c0.02,0.11,0.05,0.22,0.08,0.32c0.07,0.21,0.16,0.4,0.27,0.56c0.22,0.33,0.53,0.56,0.87,0.56
			c-0.34,0-0.63-0.29-0.76-0.64c-0.07-0.18-0.1-0.37-0.1-0.55c0-0.09,0-0.19,0.02-0.27c0.01-0.03,0.01-0.11,0.02-0.13
			c0.01-0.04,0.02-0.07,0.03-0.11C67.78,25.28,68,25,68.2,24.73l0.29-0.37c0.09,0.12,0.18,0.25,0.27,0.37
			c0.19,0.28,0.39,0.57,0.49,0.86c0.09,0.31,0.09,0.72-0.05,1.06c-0.13,0.34-0.42,0.63-0.75,0.63c0.33,0,0.64-0.22,0.86-0.55
			c0.11-0.16,0.2-0.35,0.27-0.55c0.07-0.21,0.12-0.41,0.13-0.66c0-0.5-0.12-0.92-0.27-1.31c-0.16-0.39-0.34-0.74-0.58-1.07
			l-0.33-0.45l-0.35,0.42c-0.26,0.32-0.47,0.65-0.65,1.04c-0.17,0.38-0.32,0.81-0.33,1.31c0,0.06,0,0.13,0.01,0.19
			C67.22,25.74,67.23,25.76,67.24,25.83z"/>
		<path class="st2" d="M100.88,27.58c0.13,0,0.26,0,0.39-0.01c-0.16,0-0.32-0.01-0.47-0.01c-0.1-0.02-0.23-0.05-0.39-0.08
			c-0.18-0.03-0.39-0.07-0.61-0.15c-0.21-0.07-0.45-0.19-0.56-0.4c-0.05-0.1-0.08-0.25-0.08-0.36c0-0.12,0.04-0.21,0.11-0.28
			c0.07-0.07,0.16-0.1,0.25-0.1c0.09,0,0.18,0.02,0.25,0.06c0.15,0.08,0.24,0.22,0.28,0.32c0.04,0.1,0.05,0.17,0.05,0.17
			c0,0,0.01-0.06-0.02-0.18c-0.02-0.11-0.08-0.29-0.25-0.43c-0.08-0.07-0.19-0.12-0.31-0.13c-0.12-0.02-0.26,0-0.39,0.1
			c-0.13,0.09-0.22,0.28-0.22,0.46c-0.01,0.09,0,0.18,0.02,0.27c0.02,0.08,0.04,0.17,0.09,0.26c0.09,0.17,0.22,0.28,0.35,0.35
			c0.08,0.04,0.16,0.07,0.24,0.1c-2.31-0.05-4.62-0.08-6.93-0.13l-3.75-0.04c-0.23-0.16-0.45-0.35-0.64-0.58
			c-0.12-0.15-0.22-0.31-0.31-0.48c-0.02-0.04-0.04-0.09-0.06-0.13c-0.01-0.02-0.02-0.04-0.03-0.07l-0.02-0.06
			c-0.01-0.02-0.02-0.05-0.02-0.08c-0.06-0.2-0.12-0.44-0.17-0.65c-0.11,0.21-0.22,0.45-0.33,0.64l-0.04,0.07l-0.02,0.03l-0.04,0.06
			c-0.03,0.04-0.06,0.08-0.09,0.12c-0.12,0.16-0.26,0.3-0.4,0.42c-0.29,0.24-0.61,0.4-0.92,0.5c-0.19,0.06-0.37,0.11-0.55,0.14
			l-1.04-0.01c0.06-0.06,0.12-0.13,0.18-0.2c0.26-0.32,0.46-0.68,0.58-1.1c0.12-0.4,0.14-0.9-0.04-1.3
			c-0.17-0.4-0.47-0.63-0.74-0.77c-0.27-0.14-0.56-0.22-0.84-0.2c-0.28,0.02-0.55,0.15-0.74,0.36c-0.19,0.21-0.3,0.48-0.35,0.73
			c-0.09,0.52,0.08,0.98,0.28,1.23c0.21,0.25,0.42,0.35,0.56,0.4c0.14,0.05,0.22,0.06,0.22,0.06c0,0-0.07-0.02-0.21-0.1
			c-0.13-0.07-0.33-0.2-0.49-0.45c-0.16-0.25-0.26-0.66-0.15-1.07c0.06-0.2,0.16-0.4,0.32-0.54c0.15-0.14,0.35-0.22,0.57-0.21
			c0.21,0.01,0.44,0.09,0.66,0.23c0.22,0.14,0.41,0.33,0.49,0.57c0.18,0.48-0.1,1.18-0.52,1.64c-0.1,0.12-0.22,0.22-0.34,0.29
			c-0.11,0.06-0.27,0.13-0.42,0.18c-0.3,0.09-0.62,0.13-0.95,0.13c-0.67-0.01-1.37-0.19-2.08-0.43c-0.72-0.24-1.41-0.52-2.11-0.77
			c-0.56-0.2-1.13-0.38-1.69-0.47c0,0,0-0.01,0-0.01c-0.02-0.18-0.05-0.36-0.11-0.54c-0.11-0.37-0.35-0.71-0.65-0.91
			c-0.3-0.21-0.64-0.3-0.97-0.32c-0.33-0.02-0.66,0.02-0.99,0.09c-0.33,0.08-0.64,0.19-0.96,0.35c-0.33,0.16-0.63,0.39-0.91,0.64
			c-0.56,0.51-1,1.1-1.43,1.62c-0.43,0.53-0.84,1.02-1.29,1.32c-0.19,0.13-0.39,0.24-0.6,0.33c-0.2-0.1-0.4-0.2-0.6-0.33
			c-0.45-0.3-0.86-0.79-1.29-1.32c-0.43-0.53-0.88-1.11-1.43-1.62c-0.28-0.25-0.58-0.48-0.91-0.64c-0.32-0.16-0.64-0.27-0.96-0.35
			c-0.32-0.08-0.65-0.12-0.99-0.09c-0.33,0.02-0.67,0.11-0.97,0.32c-0.3,0.2-0.54,0.55-0.65,0.91c-0.06,0.18-0.09,0.37-0.11,0.54
			c0,0,0,0.01,0,0.01c-0.57,0.09-1.13,0.27-1.69,0.47c-0.69,0.25-1.39,0.53-2.11,0.77c-0.71,0.24-1.42,0.42-2.08,0.43
			c-0.33,0-0.65-0.03-0.95-0.13c-0.15-0.05-0.3-0.11-0.42-0.18c-0.11-0.07-0.23-0.17-0.34-0.29c-0.42-0.46-0.7-1.16-0.52-1.64
			c0.08-0.24,0.27-0.44,0.49-0.57c0.22-0.14,0.44-0.22,0.66-0.23c0.21-0.01,0.41,0.07,0.57,0.21c0.15,0.14,0.26,0.34,0.32,0.54
			c0.11,0.41,0.01,0.82-0.15,1.07c-0.16,0.26-0.36,0.38-0.49,0.45c-0.13,0.07-0.21,0.09-0.21,0.1c0,0,0.08-0.01,0.22-0.06
			c0.14-0.05,0.35-0.15,0.56-0.4c0.2-0.25,0.38-0.7,0.28-1.23c-0.05-0.26-0.16-0.52-0.35-0.73c-0.19-0.21-0.46-0.35-0.74-0.36
			c-0.28-0.02-0.57,0.06-0.84,0.2c-0.27,0.14-0.57,0.37-0.74,0.77c-0.18,0.4-0.16,0.9-0.04,1.3c0.12,0.41,0.32,0.78,0.58,1.1
			c0.06,0.07,0.11,0.13,0.18,0.2l-1.04,0.01c-0.18-0.04-0.36-0.08-0.55-0.14c-0.31-0.11-0.63-0.26-0.92-0.5
			c-0.14-0.12-0.28-0.26-0.4-0.42c-0.03-0.04-0.06-0.08-0.09-0.12l-0.04-0.06l-0.02-0.03l-0.04-0.07c-0.11-0.19-0.22-0.43-0.33-0.64
			c-0.05,0.2-0.11,0.45-0.17,0.65c-0.01,0.03-0.01,0.05-0.02,0.08l-0.02,0.06c-0.01,0.02-0.02,0.04-0.03,0.07
			c-0.02,0.04-0.04,0.09-0.06,0.13c-0.08,0.17-0.19,0.33-0.31,0.48c-0.19,0.23-0.41,0.42-0.64,0.58l-3.75,0.04
			c-2.4,0.05-4.8,0.08-7.19,0.13c0.09-0.03,0.17-0.06,0.26-0.1c0.13-0.07,0.26-0.18,0.35-0.35c0.04-0.08,0.07-0.18,0.09-0.26
			c0.02-0.09,0.03-0.17,0.02-0.27c-0.01-0.18-0.09-0.37-0.22-0.46c-0.13-0.1-0.27-0.11-0.39-0.1c-0.12,0.02-0.22,0.07-0.31,0.13
			c-0.17,0.13-0.23,0.31-0.25,0.43c-0.02,0.12-0.01,0.18-0.02,0.18c0,0,0.01-0.06,0.05-0.17c0.04-0.1,0.13-0.24,0.28-0.32
			c0.07-0.04,0.16-0.06,0.25-0.06c0.09,0,0.19,0.03,0.25,0.1c0.07,0.06,0.11,0.16,0.11,0.28c0,0.11-0.03,0.26-0.08,0.36
			c-0.11,0.21-0.35,0.33-0.56,0.4c-0.22,0.07-0.43,0.11-0.61,0.15c-0.18,0.03-0.32,0.06-0.42,0.08c-0.07,0-0.14,0-0.2,0
			c0.06,0,0.11,0,0.17,0c-0.01,0-0.01,0-0.02,0c-0.06,0-0.1,0-0.1,0c0,0,0.01,0.01,0.04,0.01c-0.03,0.01-0.04,0.01-0.04,0.01
			c0,0,0.04,0,0.1,0c0.1,0.02,0.26,0.06,0.48,0.1c0.18,0.03,0.39,0.07,0.61,0.15c0.21,0.07,0.45,0.19,0.56,0.4
			c0.05,0.1,0.08,0.25,0.08,0.36c0,0.12-0.04,0.21-0.11,0.28c-0.07,0.07-0.16,0.1-0.25,0.1c-0.09,0-0.18-0.02-0.25-0.06
			c-0.15-0.08-0.24-0.22-0.28-0.32c-0.04-0.1-0.05-0.17-0.05-0.17c0,0-0.01,0.06,0.02,0.18c0.02,0.11,0.08,0.29,0.25,0.43
			c0.08,0.07,0.19,0.12,0.31,0.13c0.12,0.02,0.26,0,0.39-0.1c0.13-0.09,0.22-0.28,0.22-0.46c0.01-0.09,0-0.18-0.02-0.27
			c-0.02-0.08-0.04-0.17-0.09-0.26c-0.09-0.17-0.22-0.28-0.35-0.35c-0.13-0.07-0.26-0.11-0.38-0.14c-0.04-0.01-0.08-0.01-0.11-0.02
			c1.86,0.04,3.73,0.08,5.59,0.11c0,0,0.17,0.1,0.49,0.23c0.32,0.13,0.8,0.3,1.4,0.41c0.6,0.11,1.34,0.16,2.15,0.03
			c0.4-0.07,0.83-0.18,1.25-0.38c0.13-0.06,0.25-0.13,0.38-0.21l4.76,0.05c0.26,0,0.51,0.01,0.77,0.01
			c0.33,0.11,0.67,0.16,1.01,0.16c0.43,0.01,0.86-0.05,1.28-0.14c1.85,0.01,3.69,0.01,5.54,0.02l5.45,0.02
			c0.21,0.19,0.43,0.37,0.66,0.51c0.02,0.01,0.04,0.02,0.05,0.03c-0.01,0-0.02,0.01-0.03,0.01c-0.47,0.15-0.93,0.24-1.35,0.27
			c-0.84,0.07-1.52-0.12-1.95-0.36c-0.43-0.24-0.63-0.47-0.63-0.46c0-0.01,0.17,0.26,0.58,0.58c0.41,0.32,1.11,0.62,2,0.66
			c0.44,0.02,0.93-0.02,1.44-0.13c0.24-0.05,0.49-0.12,0.74-0.21c0.25,0.09,0.5,0.16,0.74,0.21c0.51,0.11,1,0.15,1.44,0.13
			c0.89-0.04,1.59-0.34,2-0.66c0.42-0.32,0.58-0.59,0.58-0.58c0-0.01-0.2,0.23-0.63,0.46c-0.43,0.24-1.11,0.42-1.95,0.36
			c-0.42-0.03-0.87-0.12-1.35-0.27c-0.01,0-0.02-0.01-0.03-0.01c0.02-0.01,0.04-0.02,0.05-0.03c0.24-0.14,0.46-0.32,0.66-0.51
			l5.45-0.02c1.85-0.01,3.69-0.01,5.54-0.02c0.42,0.09,0.85,0.15,1.28,0.14c0.34-0.01,0.68-0.06,1.01-0.16c0.26,0,0.51,0,0.77-0.01
			l4.76-0.05c0.13,0.08,0.25,0.15,0.38,0.21c0.42,0.2,0.84,0.31,1.25,0.38c0.81,0.13,1.55,0.08,2.15-0.03
			c0.6-0.11,1.08-0.28,1.4-0.41c0.32-0.13,0.49-0.23,0.49-0.23c1.77-0.03,3.54-0.06,5.32-0.1c-0.03,0-0.05,0.01-0.08,0.01
			c-0.12,0.03-0.25,0.07-0.38,0.14c-0.13,0.07-0.26,0.18-0.35,0.35c-0.04,0.08-0.07,0.18-0.09,0.26c-0.02,0.09-0.03,0.17-0.02,0.27
			c0.01,0.18,0.09,0.37,0.22,0.46c0.13,0.1,0.27,0.11,0.39,0.1c0.12-0.02,0.22-0.07,0.31-0.13c0.17-0.13,0.23-0.31,0.25-0.43
			c0.02-0.12,0.01-0.18,0.02-0.18c0,0-0.01,0.07-0.05,0.17c-0.04,0.1-0.13,0.24-0.28,0.32c-0.07,0.04-0.16,0.06-0.25,0.06
			c-0.09,0-0.19-0.03-0.25-0.1c-0.07-0.06-0.11-0.16-0.11-0.28c0-0.11,0.03-0.26,0.08-0.36c0.11-0.21,0.35-0.33,0.56-0.4
			c0.22-0.07,0.43-0.11,0.61-0.15c0.21-0.04,0.38-0.07,0.48-0.1c0.06,0,0.1,0,0.1,0c0,0-0.01-0.01-0.04-0.01
			c0.03-0.01,0.04-0.01,0.04-0.01C100.97,27.58,100.94,27.58,100.88,27.58z M46.49,28.02c-0.77,0.17-1.49,0.17-2.08,0.11
			c-1.19-0.12-1.9-0.44-1.91-0.43c0.61,0.01,1.22,0.02,1.84,0.03l2.98,0.03C47.04,27.88,46.76,27.96,46.49,28.02z M48.72,27.36
			c0.09-0.08,0.17-0.18,0.26-0.27c0.14-0.17,0.26-0.35,0.36-0.56c0.03-0.05,0.05-0.1,0.07-0.15c0.01-0.03,0.02-0.05,0.03-0.08
			c0.01-0.02,0.01-0.01,0.01-0.01c0,0,0,0,0,0l0-0.01c0,0,0,0,0.01,0.01l0.08,0.11c0.03,0.05,0.07,0.09,0.1,0.14
			c0.14,0.18,0.3,0.33,0.47,0.46c0.2,0.15,0.4,0.26,0.6,0.35L48.72,27.36z M61.19,25.23c0.09-0.24,0.24-0.43,0.44-0.55
			c0.41-0.24,0.98-0.22,1.54-0.06c0.28,0.08,0.57,0.19,0.84,0.33c0.26,0.13,0.51,0.33,0.76,0.55c0.48,0.44,0.9,0.97,1.34,1.47
			c-0.42-0.32-0.95-0.65-1.62-0.92c-0.46-0.18-0.97-0.34-1.53-0.45c-0.07-0.13-0.14-0.23-0.19-0.31c-0.09-0.11-0.14-0.17-0.14-0.17
			c0,0,0.04,0.06,0.11,0.19c0.04,0.07,0.08,0.16,0.13,0.27c-0.55-0.1-1.13-0.14-1.76-0.11C61.13,25.39,61.16,25.31,61.19,25.23z
			 M57.83,27.27c0.43-0.17,0.85-0.34,1.26-0.5c0.52-0.2,1.03-0.39,1.52-0.5c0.05,0.28,0.17,0.55,0.34,0.74
			c0.1,0.11,0.2,0.19,0.31,0.25C60.12,27.27,58.97,27.27,57.83,27.27z M61.72,26.98c-0.18-0.05-0.36-0.16-0.48-0.32
			c-0.09-0.13-0.15-0.29-0.18-0.48c0.67-0.08,1.32-0.07,1.92,0c0,0.06-0.01,0.12-0.03,0.18c-0.04,0.15-0.12,0.29-0.24,0.4
			C62.47,26.98,62.09,27.08,61.72,26.98z M62.48,27.26c0.14-0.07,0.27-0.17,0.37-0.29c0.14-0.16,0.23-0.36,0.26-0.56
			c0.01-0.07,0.01-0.14,0.01-0.2c0.46,0.06,0.88,0.15,1.27,0.26c0.72,0.21,1.31,0.5,1.76,0.78L62.48,27.26z M72.23,25.5
			c0.25-0.22,0.5-0.42,0.76-0.55c0.27-0.14,0.56-0.25,0.84-0.33c0.56-0.15,1.13-0.18,1.54,0.06c0.2,0.12,0.35,0.31,0.44,0.55
			c0.03,0.08,0.05,0.16,0.07,0.25c-0.62-0.03-1.21,0.02-1.76,0.11c0.04-0.11,0.09-0.2,0.13-0.27c0.07-0.13,0.12-0.19,0.11-0.19
			c0,0-0.05,0.05-0.14,0.17c-0.05,0.07-0.12,0.17-0.19,0.31c-0.56,0.11-1.07,0.26-1.53,0.45c-0.66,0.27-1.2,0.6-1.62,0.92
			C71.33,26.47,71.76,25.94,72.23,25.5z M70.84,27.24c0.45-0.28,1.04-0.57,1.76-0.78c0.39-0.11,0.82-0.2,1.27-0.26
			c0,0.07,0,0.13,0.01,0.2c0.03,0.2,0.12,0.4,0.26,0.56c0.11,0.12,0.23,0.22,0.37,0.29L70.84,27.24z M75.28,26.98
			c-0.37,0.1-0.75,0-0.99-0.22c-0.12-0.11-0.21-0.25-0.24-0.4c-0.02-0.06-0.02-0.12-0.03-0.18c0.6-0.07,1.25-0.08,1.92,0
			c-0.02,0.18-0.08,0.35-0.18,0.48C75.64,26.83,75.46,26.94,75.28,26.98z M75.74,27.26c0.11-0.06,0.22-0.14,0.31-0.25
			c0.17-0.19,0.29-0.46,0.34-0.74c0.49,0.12,1,0.3,1.52,0.5c0.41,0.16,0.83,0.33,1.26,0.5C78.03,27.27,76.88,27.27,75.74,27.26z
			 M86.3,27.33c0.2-0.09,0.41-0.2,0.6-0.35c0.17-0.13,0.32-0.28,0.47-0.46c0.04-0.04,0.07-0.09,0.1-0.14l0.08-0.11
			c0,0,0.01-0.01,0.01-0.01l0,0.01c0,0,0,0,0,0c0,0,0,0,0.01,0.01c0.01,0.03,0.02,0.05,0.03,0.08c0.02,0.05,0.04,0.1,0.07,0.15
			c0.1,0.2,0.22,0.39,0.36,0.56c0.08,0.1,0.17,0.19,0.26,0.27L86.3,27.33z M92.59,28.13c-0.6,0.05-1.31,0.05-2.08-0.11
			c-0.27-0.06-0.55-0.14-0.82-0.25l2.98-0.03c0.61-0.01,1.22-0.02,1.84-0.03C94.49,27.7,93.78,28.02,92.59,28.13z"/>
	</g>
</g>
</svg>
