<?xml version="1.0" encoding="utf-8"?>
<!-- Generator: Adobe Illustrator 24.3.0, SVG Export Plug-In . SVG Version: 6.00 Build 0)  -->
<svg version="1.1" id="Layer_1" xmlns="http://www.w3.org/2000/svg" xmlns:xlink="http://www.w3.org/1999/xlink" x="0px" y="0px"
	 viewBox="0 0 137 80" style="enable-background:new 0 0 137 80;" xml:space="preserve">
<style type="text/css">
	.st0{fill-rule:evenodd;clip-rule:evenodd;fill:#FFFFFF;}
	.st1{fill-rule:evenodd;clip-rule:evenodd;fill:#C49A64;}
	.st2{fill:#FFFFFF;}
	.st3{font-family:'Montserrat-Light';}
	.st4{font-size:14.7797px;}
</style>
<g>
	<g>
		<path class="st0" d="M75.7,14.19v-0.07l-0.07-0.07l-0.07-0.14l-0.14-0.07l-0.07-0.07l-0.07-0.07l-0.07-0.07l-0.07-0.07l-0.07-0.07
			l-0.07-0.07l-0.14-0.07l-0.07-0.07l-0.07-0.07h-0.07c-0.36,0.23-1.55,0.02-1.55,1.27c0,0.8,0.65,1.34,1.48,1.34
			c0.48,0,1.2-0.65,1.2-1.13C75.77,14.42,75.7,14.51,75.7,14.19"/>
		<path class="st1" d="M68.01,24.8c0.87,0,3.95-1.49,3.95-2.12v-3.61h-5.78C66.89,20.43,67.85,22.91,68.01,24.8"/>
		<path class="st1" d="M69.91,12.13l-0.42,0.07l-0.28,0.07l-0.28,0.07l-0.28,0.07l-0.21,0.07l-0.21,0.07l-0.14,0.07l-0.21,0.07
			l-0.14,0.07l-0.21,0.07l-0.14,0.07l-0.14,0.07l-0.14,0.07l-0.14,0.07l-0.14,0.07l-0.14,0.07l-0.14,0.07l-0.07,0.07l-0.14,0.07
			l-0.14,0.07l-0.07,0.07l-0.14,0.07l-0.07,0.07l-0.14,0.07l-0.07,0.07l-0.14,0.07l-0.07,0.07l-0.07,0.07l-0.14,0.07l-0.07,0.07
			l-0.07,0.07l-0.07,0.07l-0.14,0.07l-0.07,0.07l-0.07,0.07l-0.07,0.07l-0.07,0.07l-0.14,0.07l-0.07,0.07l-0.07,0.07l-0.07,0.07
			l-0.07,0.07l-0.07,0.07l-0.07,0.07l-0.07,0.07l-0.07,0.07l-0.07,0.07l-0.07,0.07L63.7,15.6l-0.07,0.07l-0.07,0.07l-0.07,0.07
			l-0.07,0.07l-0.07,0.07l-0.07,0.07l-0.07,0.07l-0.07,0.14l-0.07,0.07L63,16.38l-0.07,0.07l-0.07,0.07l-0.07,0.14l-0.07,0.07
			l-0.07,0.07l-0.07,0.07l-0.07,0.14l-0.07,0.07l-0.07,0.07l-0.07,0.14l-0.07,0.07l-0.07,0.07l-0.07,0.14v0.07
			c0.31,0.2,5.3,0.07,6.14,0.07c1.03,0,2.07,0,3.1,0c0.5,0,1.06,0.04,1.39-0.17c0.28-0.18,0.43-0.68,0.87-0.68
			c0.82,0,0.7,0.92,2.51,0.92l-0.04,1.13c-0.45,0.11-1.39,0.03-1.42,0.42c-0.04,0.62-0.05,1.11-0.21,1.62
			c-0.26,0.81-0.76,1.95-0.77,2.98c-0.01,0.94-0.12,7.12,0.07,7.43h0.07l0.07-0.07l0.07-0.07L74,31.17l0.07-0.07l0.07-0.14
			l0.07-0.07l0.07-0.07l0.07-0.07l0.07-0.14l0.07-0.07l0.07-0.07l0.07-0.07l0.07-0.14l0.07-0.07l0.07-0.07l0.07-0.14l0.07-0.07
			l0.07-0.14l0.07-0.07l0.07-0.14l0.07-0.07l0.07-0.14l0.07-0.07l0.07-0.14l0.07-0.14l0.07-0.07l0.07-0.14l0.07-0.14l0.07-0.07
			l0.07-0.14l0.07-0.14l0.07-0.14l0.07-0.14l0.07-0.14l0.07-0.14l0.07-0.14l0.07-0.14l0.07-0.14l0.07-0.14l0.07-0.14l0.07-0.21
			l0.07-0.14l0.07-0.21l0.07-0.14l0.07-0.21l0.07-0.14l0.07-0.21l0.07-0.21l0.07-0.21l0.07-0.28l0.07-0.21l0.07-0.28l0.07-0.28
			l0.07-0.28l0.07-0.28l0.07-0.42l0.07-0.42l0.07-0.5l0.07-0.92v-1.42l-0.07-0.85l-0.07-0.5l-0.07-0.35l-0.07-0.35l-0.07-0.28
			l-0.07-0.28l-0.07-0.21l-0.07-0.21l-0.07-0.21l-0.07-0.14l-0.07-0.21l-0.07-0.14l-0.07-0.14l-0.07-0.14l-0.07-0.14l-0.07-0.14
			l-0.07-0.14l-0.07-0.14l-0.07-0.07l-0.07-0.14l-0.07-0.14l-0.07-0.07l-0.07-0.07l-0.07-0.14l-0.07-0.07l-0.07-0.07l-0.07-0.14
			l-0.07-0.07l-0.07-0.07l-0.07-0.07l-0.07-0.07H75.7c0.01,0.33,0.07,0.24,0.07,0.5c0,0.48-0.72,1.13-1.2,1.13
			c-0.83,0-1.48-0.55-1.48-1.34c0-1.25,1.19-1.04,1.55-1.27l-0.07-0.07l-0.07-0.07l-0.14-0.07l-0.14-0.07l-0.07-0.07L74,12.77
			l-0.14-0.07l-0.14-0.07l-0.21-0.07l-0.14-0.07l-0.21-0.07l-0.21-0.07l-0.21-0.07l-0.35-0.07l-0.35-0.07l-0.78-0.07h-0.49
			L69.91,12.13z"/>
		<path class="st1" d="M61.16,19.07l-0.07,0.07l-0.07,0.14l-0.07,0.14l-0.07,0.14l-0.07,0.14l-0.07,0.14l-0.07,0.14l-0.07,0.14
			l-0.07,0.21l-0.07,0.14l-0.07,0.14l-0.07,0.14l-0.07,0.21l-0.07,0.14l-0.07,0.21l-0.07,0.21l-0.07,0.21l-0.07,0.21l-0.07,0.21
			l-0.07,0.21l-0.07,0.21l-0.07,0.28l-0.07,0.28l-0.07,0.28l-0.07,0.35l-0.07,0.35l-0.07,0.42l-0.07,0.5l-0.07,0.85v1.7l0.07,0.71
			l0.07,0.5l0.07,0.42l0.07,0.28l0.07,0.28l0.07,0.28l0.07,0.21l0.07,0.21l0.07,0.21l0.07,0.14l0.07,0.21l0.07,0.14l0.07,0.14
			l0.07,0.14l0.07,0.14l0.07,0.14l0.07,0.14l0.07,0.14l0.07,0.07l0.07,0.14l0.07,0.07l0.07,0.14l0.07,0.07l0.07,0.14l0.07,0.07
			l0.07,0.07l0.07,0.14h0.07c0.11-0.18-0.14-0.8-0.14-1.2v-0.64c0-1.09,1.58-2.82,2.2-3.45c0.46-0.47,3.3-2.17,3.3-2.42v-0.07
			c0-0.82-1-3.67-1.3-4.43c-0.72-1.83-1.44-1.87-3.85-1.87h-0.07L61.16,19.07z"/>
		<path class="st1" d="M63.98,33.29h0.35c1.52,0,2.19-3.05,2.19-4.74v-1.06c-1.22,0.03-2.67,1.6-3.26,2.39
			c-0.28,0.37-0.86,1.4-0.72,2.03C62.68,32.5,63.36,33.29,63.98,33.29"/>
		<path class="st0" d="M62.08,17.65h-0.07l-0.07,0.14l-0.07,0.07l-0.07,0.14l-0.07,0.07l-0.07,0.14l-0.07,0.07l-0.07,0.14
			l-0.07,0.14l-0.07,0.07l-0.07,0.14v0.14c2.41,0,3.13,0.03,3.85,1.87c0.3,0.76,1.3,3.61,1.3,4.43v0.07c0,0.25-2.84,1.96-3.3,2.42
			c-0.62,0.63-2.2,2.36-2.2,3.45v0.64c0,0.41,0.25,1.02,0.14,1.2v0.07l0.07,0.07l0.07,0.07l0.07,0.07l0.07,0.07l0.07,0.07l0.07,0.07
			l0.07,0.07l0.07,0.07l0.07,0.07l0.07,0.07l0.07,0.07l0.07,0.07L62.01,34l0.14,0.07l0.07,0.07l0.07,0.07l0.14,0.07l0.07,0.07
			l0.14,0.07l0.07,0.07l0.14,0.07L63,34.64l0.14,0.07l0.14,0.07l0.14,0.07h0.14c0.08-0.05,1.36-0.19,1.79-0.4
			c0.56-0.28,0.91-0.5,1.27-0.99c0.72-0.98,1.08-1.76,1.32-3.21c0.18-1.09-0.01-3.17,0.61-3.85c0.62-0.69,2.12-1.11,3.4-1.11
			l-0.02,6.94l0.09,0.78h0.07l0.07-0.07l0.14-0.07l0.07-0.07l0.07-0.07l0.07-0.07l0.07-0.07l0.07-0.07l0.07-0.07l0.07-0.07
			l0.14-0.07l0.07-0.07l0.07-0.07l0.07-0.07l0.07-0.07l0.07-0.07l0.07-0.07l0.07-0.07l0.07-0.07l0.07-0.14l0.07-0.07l0.07-0.07
			v-0.07c-0.2-0.31-0.09-6.49-0.07-7.43c0.01-1.03,0.51-2.17,0.77-2.98c0.17-0.52,0.17-1,0.21-1.62c0.03-0.39,0.96-0.31,1.42-0.42
			l0.04-1.13c-1.81,0-1.69-0.92-2.51-0.92c-0.45,0-0.59,0.5-0.87,0.68c-0.32,0.21-0.88,0.17-1.39,0.17c-1.03,0-2.07,0-3.1,0
			C67.38,17.72,62.39,17.85,62.08,17.65 M68.01,24.8c-0.16-1.89-1.11-4.37-1.83-5.73h5.78v3.61C71.96,23.31,68.88,24.8,68.01,24.8z
			 M63.98,33.29c-0.62,0-1.31-0.79-1.44-1.39c-0.14-0.64,0.44-1.66,0.72-2.03c0.59-0.78,2.05-2.36,3.26-2.39v1.06
			c0,1.69-0.67,4.74-2.19,4.74H63.98z"/>
		<path class="st1" d="M63.56,34.85v0.07l0.21,0.07l0.21,0.07l0.21,0.07l0.28,0.07l0.28,0.07l0.42,0.07h1.76l0.49-0.07l0.35-0.07
			l0.28-0.07l0.21-0.07l0.28-0.07l0.21-0.07l0.14-0.07l0.21-0.07l0.21-0.07l0.14-0.07l0.14-0.07l0.14-0.07l0.14-0.07l0.14-0.07
			l0.14-0.07l0.14-0.07l0.14-0.07l0.14-0.07L70.69,34l0.14-0.07l0.07-0.07l0.14-0.07l0.14-0.07l0.07-0.07l0.14-0.07l0.07-0.07
			l0.07-0.07l0.14-0.07l0.07-0.07l0.07-0.07l0.14-0.07l0.07-0.07v-0.07l-0.09-0.78l0.02-6.94c-1.29,0-2.79,0.43-3.4,1.11
			c-0.62,0.68-0.43,2.76-0.61,3.85c-0.23,1.44-0.6,2.23-1.32,3.21c-0.36,0.49-0.71,0.71-1.27,0.99
			C64.92,34.66,63.64,34.8,63.56,34.85"/>
		<path class="st2" d="M85.12,44.82l-0.38-1.24h-1.95l-0.38,1.24h-1.23l1.94-6.05h1.62l1.88,6.05H85.12z M84.42,42.46l-0.63-2.13
			l-0.65,2.13H84.42z M75.89,44.82v-6.05h1.4v2.36h1.87v-2.36h1.4v6.05h-1.4v-2.49h-1.87v2.49H75.89z M73.67,40.51
			c-0.06-0.24-0.19-0.42-0.39-0.53c-0.2-0.11-0.42-0.17-0.67-0.17c-0.22,0-0.4,0.04-0.56,0.13c-0.15,0.08-0.23,0.22-0.23,0.42
			c0,0.18,0.07,0.32,0.21,0.41c0.14,0.09,0.3,0.16,0.48,0.19c0.18,0.04,0.48,0.09,0.9,0.17c0.56,0.13,0.98,0.38,1.27,0.74
			c0.29,0.36,0.39,0.8,0.32,1.32c-0.08,0.6-0.36,1.04-0.82,1.31c-0.47,0.27-1,0.41-1.61,0.41c-1.34,0-2.16-0.56-2.46-1.67l1.3-0.33
			c0.15,0.55,0.56,0.84,1.24,0.88c0.26,0,0.48-0.06,0.68-0.18c0.2-0.12,0.29-0.27,0.29-0.45c0-0.13-0.04-0.25-0.13-0.34
			c-0.12-0.13-0.33-0.23-0.65-0.31c-0.32-0.08-0.66-0.16-1.02-0.26c-0.36-0.1-0.66-0.24-0.89-0.44c-0.23-0.2-0.38-0.5-0.45-0.89
			c0-0.07-0.01-0.18-0.04-0.32c0.01-0.25,0.05-0.47,0.13-0.69c0.07-0.21,0.19-0.4,0.35-0.58c0.16-0.18,0.38-0.33,0.67-0.45
			c0.29-0.13,0.61-0.19,0.98-0.2c1.2,0,1.97,0.47,2.31,1.42L73.67,40.51z M64.85,38.79h1.52l2.01,3.54h0.02v-3.54h1.1v6.03h-1.2
			l-2.31-4.05h-0.03v4.05h-1.1V38.79z M62.68,44.82l-0.38-1.24h-1.95l-0.38,1.24h-1.23l1.94-6.05h1.62l1.88,6.05H62.68z
			 M61.98,42.46l-0.63-2.13l-0.65,2.13H61.98z M51.53,38.79h2.2l1.07,3.61l1.1-3.61l2.21-0.02v6.05h-1.41v-5.03l-1.53,5.03h-0.96
			l-1.47-4.97v4.97h-1.19V38.79z"/>
		<polygon class="st0" points="80,14.89 80.07,14.96 80.21,15.03 80.28,15.11 80.42,15.18 80.49,15.25 80.56,15.32 80.7,15.39 
			80.77,15.46 80.92,15.53 80.99,15.6 81.06,15.67 81.13,15.74 81.2,15.81 81.27,15.95 81.34,16.24 81.41,30.18 81.48,30.53 
			81.55,30.67 81.62,30.81 81.69,30.96 81.76,31.03 81.83,31.17 81.9,31.24 81.97,31.31 82.04,31.38 82.11,31.45 82.19,31.52 
			82.33,31.59 82.4,31.66 82.47,31.73 82.61,31.81 82.68,31.88 82.75,31.95 82.89,32.02 82.96,32.09 83.1,32.16 83.24,32.23 
			83.31,32.3 83.46,32.37 83.6,32.44 83.74,32.51 83.88,32.58 84.02,32.65 84.23,32.65 84.23,32.58 84.16,32.51 84.09,32.44 
			84.02,32.37 83.88,32.3 83.81,32.23 83.74,32.16 83.67,32.09 83.6,32.02 83.53,31.95 83.46,31.88 83.38,31.81 83.31,31.73 
			83.24,31.66 83.17,31.59 83.1,31.52 83.03,31.45 82.96,31.31 82.89,31.1 82.82,30.81 82.75,16.8 82.68,16.59 82.61,16.38 
			82.54,16.31 82.47,16.17 82.4,16.1 82.33,16.03 82.26,15.95 82.19,15.88 82.11,15.81 82.04,15.74 81.97,15.67 81.83,15.6 
			81.76,15.53 81.62,15.46 81.48,15.39 81.34,15.32 81.2,15.25 81.06,15.18 80.92,15.11 80.77,15.03 80.63,14.96 80.42,14.89 
			80.28,14.82 80.07,14.75 80,14.75 		"/>
		<polygon class="st0" points="50.44,14.89 50.51,14.96 50.58,15.03 50.72,15.11 50.79,15.18 50.93,15.25 51,15.32 51.15,15.39 
			51.22,15.46 51.29,15.53 51.43,15.6 51.5,15.67 51.57,15.74 51.64,15.88 51.71,16.03 51.78,16.31 51.85,30.32 51.92,30.6 
			51.99,30.74 52.06,30.89 52.13,30.96 52.2,31.1 52.27,31.17 52.34,31.24 52.42,31.31 52.49,31.38 52.56,31.45 52.63,31.52 
			52.7,31.59 52.84,31.66 52.91,31.73 52.98,31.81 53.12,31.88 53.19,31.95 53.33,32.02 53.4,32.09 53.54,32.16 53.61,32.23 
			53.76,32.3 53.9,32.37 53.97,32.44 54.11,32.51 54.25,32.58 54.39,32.65 54.67,32.65 54.67,32.58 54.6,32.51 54.46,32.44 
			54.39,32.37 54.32,32.3 54.25,32.23 54.18,32.16 54.11,32.09 54.04,32.02 53.97,31.95 53.9,31.88 53.83,31.81 53.76,31.73 
			53.68,31.66 53.61,31.59 53.54,31.52 53.47,31.45 53.4,31.31 53.33,31.17 53.26,30.89 53.19,16.87 53.12,16.59 53.05,16.45 
			52.98,16.31 52.91,16.24 52.84,16.1 52.77,16.03 52.7,15.95 52.63,15.88 52.56,15.81 52.49,15.74 52.42,15.67 52.27,15.6 
			52.13,15.53 52.06,15.46 51.92,15.39 51.78,15.32 51.64,15.25 51.5,15.18 51.36,15.11 51.22,15.03 51,14.96 50.86,14.89 
			50.72,14.82 50.51,14.75 50.37,14.75 50.37,14.82 		"/>
		<polygon class="st0" points="52.84,14.89 52.98,14.96 53.05,15.03 53.12,15.11 53.26,15.18 53.33,15.25 53.47,15.32 53.54,15.39 
			53.68,15.46 53.76,15.53 53.83,15.6 53.97,15.67 54.04,15.81 54.11,15.88 54.18,16.1 54.25,16.45 54.32,30.46 54.39,30.67 
			54.46,30.81 54.53,30.89 54.6,31.03 54.67,31.1 54.74,31.17 54.81,31.24 54.88,31.31 54.95,31.38 55.03,31.45 55.1,31.52 
			55.17,31.59 55.24,31.66 55.38,31.73 55.45,31.81 55.52,31.88 55.66,31.95 55.73,32.02 55.87,32.09 55.94,32.16 56.08,32.23 
			56.22,32.3 56.3,32.37 56.44,32.44 56.58,32.51 56.72,32.58 56.86,32.65 57.07,32.65 57.07,32.58 57,32.51 56.93,32.44 
			56.86,32.37 56.79,32.3 56.72,32.23 56.65,32.16 56.58,32.09 56.44,32.02 56.37,31.95 56.3,31.88 56.22,31.81 56.15,31.73 
			56.08,31.66 56.01,31.59 55.94,31.45 55.87,31.38 55.8,31.24 55.73,31.03 55.66,30.53 55.59,16.66 55.52,16.52 55.45,16.38 
			55.38,16.24 55.31,16.17 55.24,16.03 55.17,15.95 55.1,15.88 55.03,15.81 54.95,15.74 54.81,15.67 54.74,15.6 54.6,15.53 
			54.46,15.46 54.39,15.39 54.25,15.32 54.11,15.25 53.97,15.18 53.83,15.11 53.61,15.03 53.47,14.96 53.33,14.89 53.12,14.82 
			52.91,14.75 52.84,14.75 		"/>
		<polygon class="st0" points="82.47,14.89 82.54,14.96 82.61,15.03 82.75,15.11 82.82,15.18 82.96,15.25 83.03,15.32 83.17,15.39 
			83.24,15.46 83.31,15.53 83.46,15.6 83.53,15.67 83.6,15.74 83.67,15.88 83.74,16.03 83.81,16.31 83.88,30.32 83.95,30.6 
			84.02,30.74 84.09,30.89 84.16,31.03 84.23,31.1 84.3,31.17 84.37,31.24 84.44,31.31 84.51,31.38 84.58,31.45 84.65,31.52 
			84.73,31.59 84.87,31.66 84.94,31.73 85.01,31.81 85.15,31.88 85.22,31.95 85.36,32.02 85.43,32.09 85.57,32.16 85.64,32.23 
			85.78,32.3 85.92,32.37 85.99,32.44 86.14,32.51 86.28,32.58 86.42,32.65 86.63,32.65 86.63,32.51 86.49,32.44 86.42,32.37 
			86.35,32.3 86.28,32.23 86.21,32.16 86.14,32.09 86.07,32.02 85.99,31.95 85.92,31.88 85.85,31.81 85.71,31.81 85.71,31.66 
			85.64,31.59 85.57,31.52 85.5,31.45 85.43,31.38 85.36,31.17 85.29,30.96 85.22,16.95 85.15,16.66 85.08,16.45 85.01,16.31 
			84.94,16.24 84.87,16.1 84.8,16.03 84.73,15.95 84.65,15.88 84.58,15.81 84.51,15.74 84.37,15.67 84.3,15.6 84.16,15.53 
			84.09,15.46 83.95,15.39 83.81,15.32 83.67,15.25 83.53,15.18 83.38,15.11 83.24,15.03 83.03,14.96 82.89,14.89 82.68,14.82 
			82.54,14.75 82.4,14.75 82.4,14.82 		"/>
	</g>
	<text transform="matrix(1 0 0 1 47.4024 64.1088)" class="st2 st3 st4">OAKS</text>
</g>
</svg>
