<?xml version="1.0" encoding="utf-8"?>
<!-- Generator: Adobe Illustrator 24.3.0, SVG Export Plug-In . SVG Version: 6.00 Build 0)  -->
<svg version="1.1" id="Layer_1" xmlns="http://www.w3.org/2000/svg" xmlns:xlink="http://www.w3.org/1999/xlink" x="0px" y="0px"
	 viewBox="0 0 137 80" style="enable-background:new 0 0 137 80;" xml:space="preserve">
<style type="text/css">
	.st0{fill:#FFFFFF;}
	.st1{fill-rule:evenodd;clip-rule:evenodd;fill:#FFFFFF;}
</style>
<g>
	<path class="st0" d="M68.5,11.48l-0.28,0.38l-0.49,0.45l0.48,0.45l0.29,0.39l0.28-0.38l0.49-0.45l-0.48-0.45L68.5,11.48z
		 M68.5,10.18l0.86,1.17l1.04,0.96l-1.04,0.97l-0.86,1.17l-0.86-1.17l-1.04-0.96l1.04-0.97L68.5,10.18z M72.34,25.1v1.09h-7.67V25.1
		c0.89-0.4,1.6-0.86,2.08-1.41c0.45-0.51,0.69-1.1,0.69-1.79v-2.13c0-0.71-0.2-1.29-0.56-1.68c-0.35-0.37-0.87-0.58-1.53-0.58
		c-0.75,0-1.28,0.22-1.64,0.59c-0.43,0.44-0.64,1.09-0.7,1.83l-1.08-0.07c0.07-0.99,0.38-1.89,1.01-2.52
		c0.56-0.57,1.35-0.92,2.42-0.92c0.84,0,1.55,0.25,2.08,0.7c-0.05-0.58-0.24-1.06-0.55-1.4c-0.35-0.37-0.87-0.58-1.53-0.58v-1.09
		c0.98,0,1.76,0.34,2.32,0.93c0.47,0.5,0.76,1.17,0.84,1.96c0.08-0.79,0.37-1.46,0.84-1.96c0.55-0.59,1.34-0.93,2.32-0.93v1.09
		c-0.66,0-1.18,0.21-1.53,0.58c-0.31,0.34-0.51,0.81-0.55,1.4c0.53-0.45,1.24-0.7,2.08-0.7c1.06,0,1.85,0.35,2.42,0.92
		c0.63,0.64,0.94,1.54,1.01,2.52l-1.08,0.07c-0.05-0.74-0.27-1.4-0.7-1.83c-0.36-0.37-0.9-0.59-1.64-0.59
		c-0.66,0-1.18,0.21-1.53,0.58c-0.37,0.39-0.56,0.97-0.56,1.68v2.13c0,0.69,0.25,1.29,0.69,1.79C70.74,24.24,71.45,24.7,72.34,25.1z
		 M66.81,25.1h3.37c-0.28-0.22-0.53-0.44-0.75-0.69c-0.53-0.6-0.85-1.28-0.94-2.07c-0.09,0.79-0.41,1.47-0.94,2.07
		C67.34,24.65,67.09,24.88,66.81,25.1z"/>
	<path class="st0" d="M58.15,21.06v-5.32c0-2.85,1.16-5.43,3.04-7.31c1.88-1.88,4.46-3.04,7.31-3.04h0c2.85,0,5.43,1.16,7.31,3.04
		c1.88,1.88,3.04,4.46,3.04,7.31v5.32h-0.62v-5.32c0-2.67-1.09-5.11-2.86-6.87c-1.76-1.76-4.19-2.86-6.87-2.86h0
		c-2.67,0-5.11,1.09-6.87,2.86c-1.76,1.76-2.86,4.19-2.86,6.87v5.32H58.15z"/>
	<path class="st0" d="M58.15,16.85v4.74c0,2.85,1.16,5.43,3.04,7.31c1.88,1.88,4.46,3.04,7.31,3.04h0c2.85,0,5.43-1.16,7.31-3.04
		c1.88-1.88,3.04-4.46,3.04-7.31v-4.74h-0.62v4.74c0,2.67-1.09,5.11-2.86,6.87c-1.76,1.76-4.19,2.86-6.87,2.86h0
		c-2.67,0-5.11-1.09-6.87-2.86c-1.76-1.76-2.86-4.19-2.86-6.87v-4.74H58.15z"/>
	<path class="st0" d="M70.43,40.85c0.88-1.22,2.14-1.93,3.72-1.93c1.59,0,2.37,0.77,2.37,1.55c0,1.29-1.48,1.79-2.43,1.79
		c-1.44,0-2.73-0.42-3.91-1.02C70.26,41.1,70.34,40.97,70.43,40.85 M65.6,46.02c-0.84,0.85-2.04,1.4-3.48,1.4
		c-2.73,0-4.67-2.05-4.67-4.45c0-2.69,2.12-4.5,5.15-4.5c2.51,0,4.75,1.51,7.07,2.63c-1,1.41-1.16,3.06-1.16,4.69v2.86
		c0,0.28-0.14,0.3-0.28,0.3h-0.08v0.17h1.49v-0.17h-0.05c-0.17,0-0.26-0.09-0.26-0.3v-3.25c0.02-0.34,0.29-0.57,0.59-0.57
		c0.43,0,0.61,0.34,0.61,0.75v3.08c0,0.28-0.12,0.3-0.26,0.3h-0.11v0.17h1.54v-0.17h-0.1c-0.17,0-0.25-0.09-0.25-0.3v-2.99
		c0-0.79-0.54-1.13-1.17-1.13c-0.35,0-0.71,0.17-0.86,0.38c0.07-1.49,0.33-2.68,0.81-3.59c1.28,0.58,2.57,1.01,3.93,1.01
		c1.19,0,2.63-0.56,2.63-1.9c0-0.87-0.88-1.72-2.54-1.72c-1.72,0-3.07,0.77-4.06,1.84c-0.13,0.14-0.25,0.29-0.35,0.42
		c-2.25-1.24-4.28-3.04-7.19-3.04c-3.03,0-5.26,2.13-5.26,4.98c0,2.49,1.97,4.55,4.84,4.55c1.45,0,2.68-0.54,3.53-1.42L65.6,46.02z
		 M73.24,44.69c0.37,0,0.47,0.65,0.5,1.27c0.01,0.11,0.01,0.25,0.01,0.36c-0.33,0.08-0.99,0.27-0.99,0.72
		c0,0.29,0.24,0.43,0.47,0.43c0.17,0,0.37-0.13,0.44-0.32c-0.19-0.02-0.28-0.14-0.28-0.27c0-0.26,0.25-0.37,0.54-0.42
		c0.76-0.13,1.47-0.09,2.18-0.53c0.48-0.3,0.88-0.77,0.88-1.5c0-0.77-0.62-1.31-1.31-1.31s-1.28,0.46-1.28,1.14
		c0,0.45,0.36,0.86,0.84,0.86c0.32,0,0.63-0.18,0.63-0.46c0-0.2-0.16-0.35-0.36-0.35c-0.05,0-0.1,0.02-0.1,0.02
		c0.06,0.05,0.07,0.13,0.07,0.2c0,0.18-0.23,0.32-0.38,0.32c-0.33,0-0.49-0.36-0.49-0.61c0-0.61,0.46-1,1.03-1
		c0.69,0,1.1,0.51,1.1,1.17c0,1.29-1.05,1.75-2.18,1.81c-0.02-0.22-0.05-0.42-0.11-0.63c-0.18-0.57-0.57-1.06-1.21-1.06
		c-0.98,0.01-1.54,1.15-1.54,2.36c0,1.18,0.6,2.29,1.59,2.29c0.76,0,1.11-0.75,1.26-1.4h-0.32C74.12,48.29,73.9,49,73.32,49h-0.04
		c-0.41,0-0.73-0.36-0.73-1.88C72.55,45.47,72.84,44.69,73.24,44.69z M65.39,44.61v1.15h0.2c0-0.83,0.54-1,0.76-1v3.9
		c0,0.28-0.14,0.3-0.28,0.3h-0.11v0.17h1.57v-0.17h-0.1c-0.15,0-0.26-0.09-0.26-0.3v-3.9c0.22,0,0.76,0.17,0.76,1h0.2v-1.15H65.39z"
		/>
	<path class="st0" d="M91.35,59.56v-0.26h0.77v-6.28h-0.77v-0.26h5.05v1.63h-0.22c-0.08-0.52-0.24-0.88-0.48-1.08
		c-0.24-0.2-0.67-0.3-1.27-0.3h-1.28v2.88h0.21c0.44,0,0.76-0.08,0.94-0.24c0.19-0.16,0.29-0.44,0.33-0.84h0.22v2.55h-0.22
		c-0.02-0.45-0.14-0.77-0.35-0.95c-0.21-0.18-0.57-0.27-1.07-0.27h-0.06v3.14h1.44c0.56,0,0.97-0.12,1.23-0.36
		c0.26-0.24,0.46-0.68,0.59-1.32h0.23l-0.11,1.93H91.35z M86.83,57.15h2.71v0.26h-0.62c0,0.74-0.23,1.32-0.68,1.72
		c-0.46,0.4-1.11,0.6-1.95,0.6c-0.9,0-1.62-0.32-2.16-0.95c-0.54-0.63-0.81-1.47-0.81-2.53c0-0.5,0.08-0.97,0.23-1.4
		c0.15-0.44,0.38-0.83,0.67-1.17c0.29-0.34,0.62-0.6,0.98-0.78c0.36-0.17,0.76-0.26,1.17-0.26c0.32,0,0.62,0.05,0.91,0.14
		c0.28,0.1,0.54,0.24,0.78,0.42l0.37-0.37h0.15v1.73h-0.22c-0.12-0.53-0.36-0.93-0.69-1.23c-0.34-0.29-0.75-0.44-1.24-0.44
		c-0.67,0-1.16,0.27-1.47,0.81c-0.31,0.54-0.47,1.4-0.47,2.57c0,1.14,0.14,1.95,0.41,2.44c0.27,0.49,0.73,0.74,1.36,0.74
		c0.55,0,0.94-0.14,1.18-0.42c0.24-0.28,0.36-0.75,0.36-1.4v-0.24h-0.96V57.15z M75.42,59.56v-0.26h0.81l2.32-6.71h0.26l2.16,6.71
		h0.71v0.26H79.1v-0.26h0.84l-0.68-2.18h-1.97l-0.72,2.18h0.86v0.26H75.42z M77.38,56.82h1.78l-0.86-2.73L77.38,56.82z M70.23,59.56
		v-0.26h0.86v-6.28c-0.04,0-0.09-0.01-0.14-0.01c-0.05,0-0.12,0-0.21,0c-0.48,0-0.84,0.12-1.07,0.37c-0.23,0.24-0.42,0.69-0.55,1.35
		h-0.23l0.09-1.97h5.24l0.08,1.97h-0.23c-0.09-0.62-0.26-1.07-0.52-1.33c-0.25-0.26-0.64-0.39-1.15-0.39c-0.09,0-0.15,0-0.19,0
		c-0.04,0-0.08,0.01-0.11,0.01l-0.01,6.28h0.84v0.26H70.23z M64.43,59.56v-0.26h0.86v-6.28h-0.86v-0.26h2.77v0.26h-0.88v6.28h0.88
		v0.26H64.43z M56.46,59.31h0.81v-6.28H56.5v-0.26h2.87c0.76,0,1.34,0.13,1.75,0.39c0.41,0.26,0.62,0.63,0.62,1.11
		c0,0.47-0.18,0.85-0.55,1.14c-0.37,0.29-0.87,0.45-1.52,0.48v0.08c0.5,0.09,0.9,0.26,1.21,0.52c0.31,0.26,0.49,0.58,0.55,0.95
		c0.03,0.19,0.05,0.48,0.06,0.85c0.01,0.37,0.04,0.63,0.09,0.77c0.04,0.12,0.11,0.21,0.19,0.27c0.08,0.06,0.19,0.08,0.33,0.08
		c0.08,0,0.17-0.01,0.25-0.03c0.09-0.02,0.18-0.06,0.27-0.1v0.26c-0.17,0.07-0.33,0.12-0.49,0.16c-0.16,0.04-0.31,0.06-0.45,0.06
		c-0.43,0-0.75-0.17-0.97-0.49c-0.21-0.33-0.33-0.86-0.37-1.59c0-0.02,0-0.04-0.01-0.07c-0.02-0.53-0.13-0.9-0.32-1.1
		c-0.14-0.15-0.31-0.27-0.51-0.35c-0.2-0.08-0.42-0.12-0.65-0.12h-0.6v3.3h0.79v0.26h-2.6V59.31z M58.27,55.74h0.6
		c0.7,0,1.17-0.1,1.4-0.31c0.24-0.21,0.36-0.57,0.36-1.1c0-0.5-0.1-0.84-0.3-1.02c-0.2-0.19-0.59-0.28-1.17-0.28h-0.89V55.74z
		 M48.99,59.56v-0.26h0.77v-6.28h-0.77v-0.26h5.05v1.63h-0.22c-0.08-0.52-0.24-0.88-0.48-1.08c-0.24-0.2-0.67-0.3-1.27-0.3h-1.28
		v2.88H51c0.44,0,0.76-0.08,0.94-0.24c0.19-0.16,0.29-0.44,0.33-0.84h0.22v2.55h-0.22c-0.02-0.45-0.14-0.77-0.35-0.95
		c-0.21-0.18-0.57-0.27-1.07-0.27h-0.06v3.14h1.44c0.56,0,0.97-0.12,1.23-0.36c0.26-0.24,0.46-0.68,0.59-1.32h0.23l-0.11,1.93H48.99
		z M40.36,59.56v-0.26h0.77v-6.28h-0.77v-0.26h2.57v0.26h-0.77v2.88h2.93v-2.88h-0.77v-0.26h2.57v0.26h-0.77v6.28h0.77v0.26h-2.57
		v-0.26h0.77v-3.11h-2.93v3.11h0.77v0.26H40.36z"/>
	<path class="st0" d="M89.4,72.54l-0.85-1.96l-0.88,1.96H89.4z M89.55,72.85h-2.01l-0.24,0.56c-0.08,0.19-0.11,0.34-0.11,0.45
		c0,0.16,0.06,0.28,0.19,0.35c0.08,0.05,0.26,0.08,0.56,0.1v0.16h-1.89v-0.16c0.2-0.03,0.37-0.12,0.5-0.25
		c0.13-0.14,0.29-0.42,0.49-0.86l2.03-4.54h0.08l2.05,4.67c0.2,0.44,0.36,0.72,0.48,0.84c0.09,0.09,0.23,0.14,0.4,0.15v0.16h-2.76
		v-0.16h0.11c0.22,0,0.37-0.03,0.46-0.09c0.06-0.04,0.09-0.11,0.09-0.2c0-0.05-0.01-0.1-0.03-0.15c-0.01-0.03-0.05-0.13-0.12-0.32
		L89.55,72.85z M79.8,71.73v1.76c0,0.29,0.02,0.48,0.05,0.55c0.03,0.07,0.09,0.14,0.19,0.19c0.09,0.05,0.22,0.08,0.38,0.08h0.19
		v0.16h-2.97v-0.16h0.19c0.16,0,0.3-0.03,0.4-0.09c0.07-0.04,0.13-0.1,0.17-0.2c0.03-0.07,0.04-0.25,0.04-0.53v-3.75
		c0-0.29-0.02-0.47-0.04-0.55c-0.03-0.07-0.09-0.13-0.19-0.19c-0.09-0.06-0.22-0.08-0.38-0.08h-0.19v-0.16h2.97v0.16h-0.19
		c-0.16,0-0.3,0.03-0.4,0.09c-0.07,0.04-0.13,0.11-0.17,0.2c-0.03,0.07-0.05,0.24-0.05,0.53v1.61h2.01v-1.61
		c0-0.29-0.01-0.47-0.04-0.55c-0.03-0.07-0.09-0.13-0.19-0.19c-0.1-0.06-0.22-0.08-0.38-0.08h-0.18v-0.16h2.97v0.16h-0.19
		c-0.17,0-0.3,0.03-0.4,0.09c-0.07,0.04-0.13,0.11-0.17,0.2c-0.03,0.07-0.05,0.24-0.05,0.53v3.75c0,0.29,0.02,0.48,0.05,0.55
		c0.03,0.07,0.09,0.14,0.19,0.19c0.09,0.05,0.22,0.08,0.38,0.08h0.19v0.16h-2.97v-0.16h0.18c0.17,0,0.3-0.03,0.4-0.09
		c0.07-0.04,0.13-0.1,0.17-0.2c0.03-0.07,0.04-0.25,0.04-0.53v-1.76H79.8z M74.86,68.64l0.05,1.9h-0.17
		c-0.08-0.48-0.28-0.86-0.6-1.15c-0.32-0.29-0.66-0.43-1.03-0.43c-0.28,0-0.51,0.08-0.68,0.23c-0.17,0.15-0.25,0.33-0.25,0.53
		c0,0.12,0.03,0.24,0.09,0.33c0.08,0.13,0.21,0.26,0.39,0.39c0.13,0.09,0.43,0.26,0.91,0.49c0.67,0.33,1.12,0.64,1.35,0.93
		c0.23,0.29,0.34,0.63,0.34,1c0,0.48-0.19,0.89-0.56,1.23c-0.37,0.34-0.84,0.51-1.42,0.51c-0.18,0-0.35-0.02-0.51-0.06
		c-0.16-0.04-0.36-0.11-0.6-0.2c-0.14-0.06-0.25-0.08-0.33-0.08c-0.07,0-0.15,0.03-0.23,0.08c-0.08,0.06-0.15,0.14-0.2,0.25h-0.16
		v-2.15h0.16c0.12,0.61,0.36,1.07,0.71,1.38c0.35,0.32,0.73,0.47,1.13,0.47c0.31,0,0.56-0.09,0.75-0.25
		c0.19-0.17,0.28-0.37,0.28-0.59c0-0.14-0.04-0.27-0.11-0.39c-0.07-0.12-0.18-0.24-0.33-0.36c-0.14-0.11-0.4-0.26-0.77-0.45
		c-0.52-0.25-0.89-0.47-1.12-0.65c-0.23-0.18-0.4-0.38-0.52-0.6c-0.12-0.22-0.18-0.46-0.18-0.73c0-0.45,0.17-0.84,0.5-1.16
		c0.33-0.32,0.75-0.48,1.26-0.48c0.19,0,0.37,0.02,0.54,0.07c0.13,0.03,0.29,0.1,0.48,0.19c0.19,0.09,0.32,0.14,0.4,0.14
		c0.07,0,0.13-0.02,0.17-0.06c0.04-0.04,0.08-0.15,0.11-0.33H74.86z M64.92,68.77l2.81,3.53v-2.45c0-0.34-0.05-0.57-0.15-0.69
		c-0.14-0.16-0.36-0.24-0.68-0.24v-0.16h1.88v0.16c-0.24,0.03-0.4,0.07-0.48,0.12c-0.08,0.05-0.15,0.13-0.19,0.24
		c-0.04,0.11-0.07,0.3-0.07,0.57v4.74h-0.15l-3.85-4.74v3.62c0,0.33,0.07,0.55,0.22,0.66c0.15,0.12,0.32,0.17,0.52,0.17h0.14v0.16
		H62.9v-0.16c0.32,0,0.54-0.07,0.66-0.19c0.12-0.13,0.18-0.34,0.18-0.64v-4.02l-0.12-0.15c-0.12-0.15-0.23-0.25-0.32-0.3
		c-0.09-0.05-0.23-0.07-0.4-0.08v-0.16H64.92z M58.16,72.54l-0.85-1.96l-0.88,1.96H58.16z M58.31,72.85h-2.01l-0.24,0.56
		c-0.08,0.19-0.11,0.34-0.11,0.45c0,0.16,0.06,0.28,0.19,0.35c0.08,0.05,0.26,0.08,0.56,0.1v0.16H54.8v-0.16
		c0.2-0.03,0.37-0.12,0.5-0.25c0.13-0.14,0.29-0.42,0.49-0.86l2.03-4.54h0.08l2.05,4.67c0.2,0.44,0.36,0.72,0.48,0.84
		c0.09,0.09,0.23,0.14,0.4,0.15v0.16h-2.76v-0.16h0.11c0.22,0,0.37-0.03,0.46-0.09c0.06-0.04,0.09-0.11,0.09-0.2
		c0-0.05-0.01-0.1-0.03-0.15c-0.01-0.03-0.05-0.13-0.12-0.32L58.31,72.85z M48.88,72.53l1.54-3.76h2.32v0.16h-0.18
		c-0.17,0-0.3,0.03-0.4,0.09c-0.07,0.04-0.13,0.11-0.17,0.2c-0.03,0.07-0.04,0.24-0.04,0.53v3.75c0,0.29,0.02,0.48,0.04,0.55
		c0.03,0.07,0.09,0.14,0.19,0.19c0.1,0.05,0.22,0.08,0.38,0.08h0.18v0.16h-2.97v-0.16h0.19c0.17,0,0.3-0.03,0.4-0.09
		c0.07-0.04,0.12-0.1,0.17-0.2c0.03-0.07,0.05-0.25,0.05-0.53v-4.22l-2.19,5.2h-0.1l-2.22-5.16v4.01c0,0.28,0.01,0.45,0.02,0.52
		c0.04,0.14,0.12,0.25,0.24,0.34c0.12,0.09,0.31,0.13,0.57,0.13v0.16h-1.95v-0.16h0.06c0.13,0,0.25-0.02,0.35-0.06
		c0.11-0.04,0.19-0.1,0.25-0.17c0.06-0.07,0.1-0.17,0.13-0.31c0.01-0.03,0.01-0.17,0.01-0.43v-3.6c0-0.29-0.02-0.47-0.05-0.54
		c-0.03-0.07-0.09-0.13-0.19-0.19c-0.09-0.06-0.22-0.08-0.38-0.08h-0.18v-0.16h2.33L48.88,72.53z"/>
	<path class="st0" d="M70.33,63.81h0.72v0.06h-0.04c-0.03,0-0.07,0.01-0.12,0.04c-0.05,0.02-0.1,0.06-0.14,0.1
		c-0.04,0.04-0.09,0.12-0.15,0.22L70.11,65v0.52c0,0.13,0.01,0.21,0.04,0.24c0.04,0.04,0.1,0.07,0.18,0.07h0.07v0.06h-0.88v-0.06
		h0.07c0.09,0,0.15-0.03,0.19-0.08c0.02-0.03,0.03-0.11,0.03-0.22v-0.49l-0.57-0.87c-0.07-0.1-0.11-0.17-0.14-0.19
		c-0.02-0.03-0.07-0.06-0.15-0.09c-0.02-0.01-0.05-0.01-0.09-0.01v-0.06h0.89v0.06h-0.05c-0.05,0-0.09,0.01-0.13,0.03
		c-0.04,0.02-0.06,0.06-0.06,0.1c0,0.04,0.03,0.1,0.09,0.2l0.43,0.67l0.41-0.64c0.06-0.1,0.09-0.17,0.09-0.22
		c0-0.03-0.01-0.05-0.02-0.08c-0.01-0.02-0.04-0.04-0.06-0.05c-0.03-0.01-0.07-0.02-0.12-0.02V63.81z M66.54,65.74
		c0.12,0.03,0.24,0.04,0.35,0.04c0.19,0,0.33-0.04,0.42-0.12c0.1-0.08,0.15-0.19,0.15-0.31c0-0.08-0.02-0.16-0.07-0.23
		c-0.04-0.07-0.12-0.13-0.22-0.18c-0.1-0.04-0.22-0.07-0.37-0.07c-0.06,0-0.12,0-0.16,0c-0.05,0-0.08,0.01-0.11,0.01V65.74z
		 M66.54,64.74c0.04,0.01,0.08,0.01,0.13,0.02c0.05,0,0.1,0.01,0.16,0.01c0.15,0,0.26-0.02,0.34-0.05c0.08-0.03,0.13-0.08,0.17-0.15
		c0.04-0.07,0.06-0.14,0.06-0.22c0-0.12-0.05-0.22-0.15-0.31c-0.1-0.09-0.24-0.13-0.43-0.13c-0.1,0-0.2,0.01-0.28,0.03V64.74z
		 M67.34,64.83c0.14,0.03,0.25,0.08,0.32,0.15c0.1,0.09,0.15,0.21,0.15,0.35c0,0.1-0.03,0.2-0.1,0.3c-0.07,0.09-0.15,0.16-0.27,0.21
		c-0.11,0.04-0.29,0.07-0.52,0.07h-0.98v-0.06h0.08c0.09,0,0.15-0.03,0.19-0.08c0.02-0.04,0.03-0.11,0.03-0.23v-1.34
		c0-0.13-0.01-0.21-0.04-0.24c-0.04-0.05-0.1-0.07-0.18-0.07h-0.08v-0.06h0.9c0.17,0,0.3,0.01,0.4,0.04c0.15,0.04,0.27,0.1,0.35,0.2
		c0.08,0.09,0.12,0.2,0.12,0.32c0,0.1-0.03,0.2-0.1,0.28C67.56,64.73,67.47,64.79,67.34,64.83z"/>
	<rect x="73.15" y="64.62" class="st1" width="3.35" height="0.26"/>
	<rect x="60.07" y="64.62" class="st1" width="3.35" height="0.26"/>
</g>
</svg>
