<?xml version="1.0" encoding="utf-8"?>
<!-- Generator: Adobe Illustrator 24.3.0, SVG Export Plug-In . SVG Version: 6.00 Build 0)  -->
<svg version="1.1" id="Layer_1" xmlns="http://www.w3.org/2000/svg" xmlns:xlink="http://www.w3.org/1999/xlink" x="0px" y="0px"
	 viewBox="0 0 137 80" style="enable-background:new 0 0 137 80;" xml:space="preserve">
<style type="text/css">
	.st0{fill:#FFFFFF;}
	.st1{fill-rule:evenodd;clip-rule:evenodd;fill:#FFFFFF;}
</style>
<g>
	<g>
		<path class="st0" d="M68.46,62.68c-15.34,0-27.81-12.48-27.81-27.81c0-3.65,0.7-7.2,2.09-10.58c0.08-0.19,0.29-0.27,0.47-0.2
			c0.19,0.08,0.27,0.29,0.2,0.47c-1.35,3.28-2.03,6.75-2.03,10.3c0,14.94,12.15,27.09,27.09,27.09c14.94,0,27.09-12.15,27.09-27.09
			c0-3.55-0.68-7.02-2.03-10.3c-0.08-0.19,0.01-0.4,0.2-0.47c0.19-0.08,0.4,0.01,0.47,0.2c1.39,3.37,2.09,6.93,2.09,10.58
			C96.27,50.2,83.8,62.68,68.46,62.68z"/>
	</g>
	<path class="st0" d="M79.26,53.62l-0.72-2.28h-0.31l-0.72,2.28h0.3l0.24-0.74h0.68l0.24,0.74H79.26z M78.38,51.64l0.27,1.01H78.1
		L78.38,51.64z M76.85,53.62v-2.28h-0.29v0.97h-0.83v-0.97h-0.29v2.28h0.29v-1.07h0.83v1.07H76.85z M74.06,51.29
		c-0.38,0-0.63,0.21-0.63,0.6c0,0.68,0.98,0.7,0.98,1.17c0,0.23-0.16,0.39-0.39,0.39c-0.14,0-0.32-0.1-0.42-0.19l-0.12,0.21
		c0.14,0.12,0.36,0.21,0.54,0.21c0.37,0,0.67-0.24,0.67-0.62c0-0.73-0.98-0.68-0.98-1.22c0-0.21,0.16-0.32,0.35-0.32
		c0.14,0,0.29,0.07,0.37,0.17l0.16-0.14C74.49,51.39,74.26,51.29,74.06,51.29z M72.66,53.62v-2.28h-0.29v1.43
		c0,0.11,0.01,0.21,0.02,0.32l-0.77-1.75h-0.38v2.28h0.29v-1.55c0-0.11-0.01-0.21-0.02-0.31l0.86,1.86H72.66z M70.58,53.62
		l-0.72-2.28h-0.31l-0.72,2.28h0.3l0.24-0.74h0.68l0.24,0.74H70.58z M69.7,51.64l0.27,1.01h-0.54L69.7,51.64z M68.17,51.34h-0.38
		l-0.67,1.93l-0.67-1.93h-0.38v2.28h0.29v-1.56c0-0.12-0.02-0.31-0.02-0.31l0.66,1.87h0.25l0.66-1.86c0,0-0.02,0.19-0.02,0.32v1.55
		h0.29V51.34z M63.9,51.34h-0.29l-0.51,1.14l-0.51-1.14h-0.31l0.66,1.44v0.84h0.29v-0.84L63.9,51.34z M60.95,51.34h-0.56v2.25
		c0.18,0.05,0.38,0.09,0.57,0.09c0.45,0,0.81-0.24,0.81-0.72c0-0.29-0.16-0.54-0.47-0.56c0.2-0.05,0.34-0.29,0.34-0.49
		c0-0.24-0.11-0.43-0.34-0.52C61.2,51.35,61.07,51.34,60.95,51.34z M61.36,51.91c0,0.25-0.17,0.39-0.41,0.39h-0.27v-0.74h0.27
		C61.19,51.57,61.36,51.65,61.36,51.91z M61.49,52.96c0,0.33-0.23,0.47-0.53,0.47c-0.09,0-0.18-0.02-0.27-0.05v-0.84h0.25
		C61.24,52.54,61.49,52.59,61.49,52.96z"/>
	<polygon class="st0" points="59.75,19.24 66.17,45.66 66.47,45.66 67.53,41.02 67.38,40.41 67.38,40.41 62.25,19.24 64.32,19.24 
		64.32,19.05 57.53,19.05 57.53,19.24 	"/>
	<path class="st0" d="M70.84,24.9c0.62-0.68,1.51-1.09,2.7-1.09c3.62,0,4.98,3.09,4.98,6.38h0.19v-6.34h-0.19
		c-0.19,0.49-0.57,0.72-1.13,0.72c-0.34,0-0.75-0.08-1.21-0.3c-0.75-0.38-1.66-0.6-2.64-0.6c-0.88,0-1.74,0.15-2.53,0.47L70.84,24.9
		z M67.73,50.26h0.19c0.19-0.49,0.6-0.79,1.21-0.79c0.34,0,0.75,0.11,1.21,0.3c0.83,0.45,1.81,0.68,2.79,0.68
		c2.87,0,6.26-1.66,6.26-5.4c0-6.66-8.63-9.55-9.51-15.93l-0.91,4c2.54,4.78,8.65,7.82,8.65,12.87c0,2.72-1.96,4.3-4.49,4.3
		c-3.74,0-5.21-2.91-5.21-6.38h-0.19V50.26z"/>
	<polygon class="st1" points="64.74,53.64 73.36,15.68 72.94,15.68 64.32,53.64 	"/>
	<path class="st0" d="M92.7,17.16l-1.05-1.46l0.6-0.43l2.57,3.6l-0.6,0.43l-1.05-1.46l-4.3,3.08l-0.48-0.67L92.7,17.16z
		 M85.15,16.63c-0.26-0.25-0.42-0.52-0.49-0.81c-0.07-0.29,0.07-0.61,0.4-0.96l2.48-2.59c0.31-0.32,0.61-0.47,0.92-0.45
		c0.31,0.02,0.59,0.15,0.83,0.38c0.47,0.45,0.98,0.97,1.54,1.57l0.25,0.27l-0.47,0.49l-1.68-1.61c-0.31-0.3-0.62-0.29-0.91,0.02
		l-0.86,0.9l1.85,1.83l-0.44,0.46l-1.92-1.76l-0.85,0.89c-0.18,0.19-0.25,0.35-0.23,0.5c0.02,0.15,0.11,0.29,0.26,0.43l1.67,1.59
		l-0.47,0.49C86.3,17.69,85.68,17.13,85.15,16.63z M81.39,13.76c-0.3-0.2-0.51-0.43-0.64-0.7c-0.12-0.27-0.05-0.61,0.21-1.02
		l1.94-3.01c0.24-0.37,0.51-0.58,0.82-0.61c0.31-0.04,0.61,0.04,0.89,0.22c0.55,0.35,1.15,0.77,1.81,1.25l0.3,0.21l-0.37,0.57
		l-1.95-1.26c-0.36-0.23-0.66-0.17-0.89,0.19l-0.68,1.05L85,12.1l-0.35,0.54l-2.22-1.36l-0.67,1.04c-0.14,0.22-0.18,0.39-0.13,0.53
		c0.05,0.14,0.16,0.27,0.33,0.37l1.94,1.25l-0.37,0.57C82.72,14.59,82,14.16,81.39,13.76z M78.95,9.06
		c0.27,0.11,0.52,0.12,0.73,0.02c0.21-0.09,0.4-0.34,0.56-0.75c0.16-0.39,0.19-0.69,0.09-0.89c-0.1-0.2-0.28-0.36-0.55-0.46
		l-1.35-0.54L77.6,8.52L78.95,9.06z M77.93,5.46l2.24,0.89c0.46,0.18,0.77,0.45,0.95,0.8C81.3,7.5,81.25,8,81,8.64
		c-0.21,0.52-0.45,0.86-0.73,1c-0.28,0.15-0.58,0.2-0.91,0.17l0.19,2.78l-0.77-0.31l-0.15-2.64l-1.03-0.43
		c-0.05-0.03-0.13-0.06-0.22-0.1l-0.9,2.25l-0.77-0.31L77.93,5.46z M73.36,5.17l-1.77-0.32l0.13-0.72l4.35,0.79l-0.13,0.72
		l-1.77-0.32l-0.95,5.21l-0.81-0.15L73.36,5.17z M68.08,10.11c-0.28,0.01-0.6,0-0.97-0.02c-0.37-0.02-0.66-0.05-0.87-0.09
		l-0.02-0.64c0.45,0.03,1.06,0.04,1.81,0.01c0.39-0.01,0.68-0.08,0.89-0.2c0.21-0.12,0.31-0.34,0.3-0.65l-0.01-0.35
		c-0.01-0.51-0.29-0.75-0.83-0.74l-0.61,0.02c-0.54,0.02-0.95-0.09-1.24-0.32c-0.28-0.23-0.43-0.61-0.45-1.15l-0.01-0.34
		c-0.02-0.56,0.12-0.97,0.42-1.23c0.3-0.26,0.74-0.41,1.34-0.42c0.26-0.01,0.56,0,0.9,0.03c0.34,0.03,0.63,0.06,0.87,0.1l0.02,0.64
		l-0.17,0c-0.7-0.03-1.2-0.04-1.51-0.03c-0.37,0.01-0.65,0.08-0.83,0.22c-0.18,0.14-0.27,0.38-0.26,0.72l0.01,0.25
		c0.01,0.28,0.09,0.48,0.24,0.6c0.15,0.12,0.38,0.17,0.68,0.16l0.66-0.02c0.49-0.01,0.87,0.11,1.13,0.36
		c0.26,0.26,0.4,0.6,0.41,1.04l0.01,0.43c0.02,0.59-0.14,1.01-0.48,1.25C69.19,9.97,68.71,10.09,68.08,10.11z M61.04,8.74
		l-1.87-2.52l0.07,3.14L61.04,8.74z M58.44,5.72l0.99-0.34l3.87,5.04l-0.81,0.28l-1.02-1.32l-2.18,0.75l0.02,1.66l-0.8,0.28
		L58.44,5.72z M55.67,13.68c-0.43,0.25-0.82,0.35-1.17,0.29c-0.35-0.06-0.68-0.25-1-0.57c-0.32-0.33-0.65-0.8-1.01-1.42
		c-0.36-0.61-0.59-1.14-0.71-1.58c-0.12-0.44-0.1-0.83,0.05-1.18c0.15-0.35,0.46-0.66,0.94-0.93c0.57-0.33,1.18-0.6,1.82-0.8
		l0.32,0.54c-0.58,0.25-1.13,0.52-1.64,0.82c-0.33,0.19-0.55,0.4-0.64,0.63c-0.1,0.23-0.1,0.51,0,0.83c0.1,0.33,0.29,0.74,0.59,1.25
		c0.31,0.53,0.58,0.92,0.81,1.16c0.23,0.24,0.46,0.38,0.69,0.4c0.23,0.02,0.5-0.06,0.8-0.23c0.36-0.21,0.72-0.52,1.06-0.93
		l-0.8-1.38l-1.16,0.67l-0.32-0.54c0.28-0.22,0.66-0.48,1.14-0.76c0.21-0.12,0.43-0.24,0.68-0.36l1.63,2.82l-0.53,0.31l-0.32-0.3
		c-0.13,0.22-0.31,0.44-0.52,0.67C56.18,13.34,55.94,13.53,55.67,13.68z M51.5,16.89c-0.26,0.25-0.54,0.4-0.83,0.45
		c-0.29,0.05-0.61-0.09-0.94-0.45l-2.47-2.6c-0.3-0.32-0.44-0.64-0.4-0.94c0.04-0.31,0.18-0.58,0.42-0.81
		c0.47-0.45,1.02-0.94,1.64-1.47l0.28-0.24l0.47,0.49l-1.68,1.6c-0.31,0.3-0.32,0.6-0.02,0.91l0.86,0.91l1.92-1.75l0.44,0.46
		l-1.85,1.83l0.85,0.9c0.18,0.19,0.34,0.27,0.49,0.25c0.15-0.02,0.3-0.1,0.44-0.23l1.67-1.59l0.47,0.49
		C52.61,15.8,52.03,16.39,51.5,16.89z M42.17,18.79l0.49-0.69l5.17,1.62l-3.21-4.37l0.49-0.69l3.74,5.14l-0.61,0.85L42.17,18.79z"/>
	<path class="st0" d="M66.98,73.14c0,0.06,0.01,0.11,0.02,0.16c0.01,0.05,0.03,0.09,0.06,0.13c0.03,0.04,0.06,0.07,0.1,0.09
		c0.04,0.02,0.09,0.03,0.15,0.03c0.06,0,0.13-0.01,0.2-0.05c0.07-0.03,0.14-0.07,0.2-0.12c0.07-0.05,0.13-0.11,0.19-0.19
		c0.06-0.07,0.11-0.15,0.16-0.24c0.05-0.09,0.09-0.18,0.12-0.27c0.03-0.1,0.05-0.2,0.06-0.3c-0.11,0-0.21,0.01-0.31,0.02
		c-0.1,0.01-0.2,0.03-0.3,0.05c-0.09,0.02-0.18,0.05-0.26,0.09c-0.08,0.04-0.15,0.08-0.21,0.14c-0.06,0.06-0.1,0.12-0.14,0.2
		C66.99,72.96,66.98,73.04,66.98,73.14 M68.29,71.68c0-0.11-0.02-0.21-0.06-0.29c-0.04-0.08-0.09-0.15-0.15-0.2
		c-0.06-0.05-0.13-0.09-0.2-0.12c-0.08-0.03-0.15-0.04-0.23-0.04c-0.1,0-0.19,0.01-0.26,0.03c-0.07,0.02-0.13,0.05-0.17,0.09
		c-0.04,0.04-0.07,0.08-0.09,0.13c-0.02,0.05-0.03,0.11-0.03,0.16c0,0.07,0.01,0.14,0.04,0.21c0.02,0.07,0.06,0.14,0.11,0.2
		l-0.01,0.02c-0.08,0.04-0.16,0.06-0.24,0.06c-0.05,0-0.09-0.01-0.14-0.02c-0.04-0.01-0.08-0.04-0.11-0.07
		c-0.03-0.03-0.05-0.06-0.07-0.1c-0.02-0.04-0.03-0.09-0.03-0.14c0-0.08,0.02-0.16,0.06-0.24c0.04-0.07,0.09-0.14,0.16-0.2
		c0.07-0.06,0.15-0.12,0.23-0.16c0.09-0.05,0.18-0.09,0.27-0.12c0.09-0.03,0.19-0.06,0.28-0.08c0.09-0.02,0.18-0.03,0.26-0.03
		c0.15,0,0.28,0.02,0.38,0.06c0.1,0.04,0.19,0.1,0.26,0.17c0.07,0.08,0.11,0.17,0.14,0.28c0.03,0.11,0.05,0.23,0.05,0.37
		c0,0.09,0,0.2-0.01,0.31c-0.01,0.11-0.02,0.23-0.03,0.35c-0.01,0.12-0.02,0.25-0.03,0.38c-0.01,0.13-0.01,0.26-0.01,0.39
		c0,0.21,0.04,0.36,0.12,0.46c0.08,0.1,0.17,0.15,0.3,0.15c0.11,0,0.23-0.04,0.37-0.12l0.06,0.09c-0.1,0.09-0.2,0.17-0.31,0.22
		c-0.11,0.05-0.23,0.08-0.35,0.08c-0.09,0-0.18-0.02-0.26-0.05c-0.08-0.03-0.15-0.08-0.2-0.14c-0.06-0.06-0.1-0.14-0.13-0.23
		c-0.03-0.09-0.05-0.2-0.05-0.33c0-0.04,0-0.07,0-0.11c0-0.04,0.01-0.08,0.01-0.12h-0.01c-0.06,0.12-0.13,0.24-0.21,0.36
		c-0.08,0.12-0.17,0.23-0.27,0.32c-0.1,0.09-0.2,0.17-0.31,0.23c-0.11,0.06-0.22,0.09-0.34,0.09c-0.1,0-0.19-0.02-0.27-0.05
		c-0.08-0.03-0.15-0.08-0.21-0.14c-0.06-0.06-0.1-0.13-0.13-0.21c-0.03-0.08-0.05-0.17-0.05-0.27c0-0.13,0.02-0.24,0.07-0.34
		c0.05-0.1,0.11-0.19,0.19-0.28c0.08-0.08,0.18-0.15,0.29-0.21c0.11-0.06,0.24-0.11,0.37-0.15c0.13-0.04,0.28-0.07,0.43-0.09
		c0.15-0.02,0.3-0.03,0.46-0.03c0.01-0.09,0.02-0.18,0.02-0.26C68.28,71.87,68.29,71.78,68.29,71.68z M65.57,71.49
		c0-0.07-0.01-0.13-0.03-0.18c-0.02-0.06-0.05-0.11-0.09-0.15c-0.04-0.04-0.08-0.08-0.14-0.1c-0.05-0.02-0.11-0.04-0.17-0.04
		c-0.09,0-0.18,0.02-0.25,0.05c-0.08,0.03-0.14,0.08-0.2,0.13c-0.06,0.06-0.11,0.12-0.16,0.2c-0.05,0.07-0.08,0.15-0.12,0.24
		c-0.03,0.08-0.06,0.17-0.08,0.26c-0.02,0.09-0.03,0.17-0.04,0.26c0.2-0.01,0.38-0.04,0.54-0.07c0.16-0.03,0.3-0.08,0.4-0.13
		c0.11-0.06,0.2-0.12,0.25-0.2C65.54,71.68,65.57,71.59,65.57,71.49z M65.97,73.21c0.01,0,0.02,0.01,0.03,0.02
		c0.01,0.01,0.03,0.02,0.04,0.03c0.01,0.01,0.02,0.02,0.03,0.03c0.01,0.01,0.01,0.02,0.01,0.03c0,0.01,0,0.01-0.01,0.02
		c-0.08,0.11-0.17,0.21-0.26,0.29c-0.09,0.08-0.19,0.15-0.29,0.21c-0.1,0.05-0.2,0.09-0.3,0.12c-0.1,0.03-0.2,0.04-0.3,0.04
		c-0.17,0-0.33-0.03-0.47-0.1c-0.14-0.07-0.26-0.16-0.37-0.29c-0.1-0.12-0.18-0.26-0.24-0.43c-0.06-0.16-0.09-0.34-0.09-0.52
		c0-0.15,0.02-0.3,0.05-0.46c0.03-0.15,0.08-0.3,0.14-0.44c0.06-0.14,0.14-0.27,0.23-0.39c0.09-0.12,0.2-0.22,0.31-0.31
		c0.12-0.09,0.24-0.16,0.38-0.21c0.14-0.05,0.29-0.08,0.45-0.08c0.1,0,0.21,0.01,0.3,0.04c0.1,0.03,0.18,0.07,0.25,0.12
		c0.07,0.05,0.13,0.12,0.17,0.2c0.04,0.08,0.06,0.17,0.06,0.27c0,0.14-0.05,0.27-0.14,0.38c-0.09,0.11-0.23,0.2-0.39,0.28
		c-0.17,0.08-0.36,0.14-0.59,0.18c-0.22,0.05-0.47,0.08-0.73,0.1v0.03c0,0.18,0.02,0.35,0.07,0.5c0.05,0.15,0.11,0.28,0.19,0.39
		c0.08,0.11,0.18,0.19,0.29,0.25c0.11,0.06,0.23,0.09,0.35,0.09c0.13,0,0.26-0.03,0.39-0.09C65.7,73.45,65.84,73.35,65.97,73.21z
		 M61.55,73.92l-0.03,0c0.01-0.14,0.02-0.28,0.03-0.44c0.01-0.16,0.02-0.32,0.03-0.48c0.01-0.16,0.02-0.33,0.02-0.49
		c0.01-0.16,0.01-0.31,0.02-0.45c0-0.14,0.01-0.27,0.01-0.38c0-0.11,0-0.2,0-0.26c0-0.05,0-0.1-0.01-0.14c0-0.04-0.01-0.07-0.03-0.1
		c-0.01-0.03-0.04-0.05-0.06-0.06c-0.03-0.01-0.07-0.02-0.11-0.02c-0.02,0-0.05,0-0.08,0c-0.02,0-0.05,0.01-0.08,0.01
		c-0.03,0.01-0.07,0.01-0.11,0.02c-0.04,0.01-0.08,0.02-0.14,0.03l-0.03-0.15c0.24-0.09,0.43-0.15,0.57-0.18
		c0.15-0.03,0.25-0.05,0.3-0.05c0.09,0,0.16,0.03,0.2,0.08c0.04,0.05,0.06,0.14,0.06,0.24c0,0.01,0,0.04,0,0.09
		c0,0.05-0.01,0.11-0.01,0.19c0,0.08-0.01,0.17-0.02,0.27c-0.01,0.1-0.02,0.21-0.02,0.33c-0.01,0.12-0.02,0.24-0.03,0.37
		c-0.01,0.13-0.02,0.25-0.04,0.38l0.02,0c0.07-0.28,0.15-0.54,0.23-0.78c0.09-0.24,0.18-0.45,0.29-0.63
		c0.11-0.18,0.23-0.32,0.36-0.42c0.13-0.1,0.27-0.15,0.42-0.15c0.06,0,0.1,0.01,0.15,0.03c0.05,0.02,0.09,0.04,0.12,0.07
		c0.03,0.03,0.06,0.07,0.08,0.11c0.02,0.04,0.03,0.09,0.03,0.14c0,0.06-0.01,0.13-0.04,0.19c-0.03,0.06-0.07,0.11-0.13,0.16h-0.02
		c-0.06-0.05-0.12-0.09-0.17-0.11c-0.05-0.02-0.11-0.03-0.17-0.03c-0.06,0-0.13,0.01-0.19,0.04c-0.06,0.02-0.11,0.06-0.16,0.1
		c-0.08,0.07-0.16,0.17-0.23,0.29c-0.07,0.12-0.13,0.26-0.19,0.4c-0.06,0.15-0.11,0.3-0.16,0.47c-0.05,0.16-0.09,0.32-0.12,0.48
		c-0.03,0.15-0.06,0.3-0.08,0.44c-0.02,0.14-0.04,0.25-0.04,0.34L61.55,73.92z M59.87,71.15c-0.19-0.09-0.38-0.14-0.57-0.14
		c-0.14,0-0.27,0.02-0.38,0.07c-0.12,0.04-0.22,0.1-0.31,0.18c-0.09,0.08-0.17,0.17-0.24,0.27c-0.07,0.1-0.13,0.22-0.17,0.34
		c-0.05,0.12-0.08,0.24-0.1,0.37c-0.02,0.13-0.03,0.26-0.03,0.39c0,0.05,0,0.1,0.01,0.16c0,0.06,0.01,0.12,0.02,0.18
		c0.01,0.06,0.03,0.13,0.05,0.19c0.02,0.06,0.05,0.12,0.08,0.16c0.03,0.05,0.07,0.09,0.11,0.12c0.04,0.03,0.09,0.04,0.15,0.04
		c0.1,0,0.21-0.04,0.31-0.11c0.11-0.08,0.21-0.18,0.31-0.3c0.1-0.13,0.2-0.27,0.29-0.44c0.09-0.16,0.17-0.33,0.24-0.5
		c0.07-0.17,0.13-0.34,0.17-0.51C59.83,71.44,59.86,71.29,59.87,71.15z M60.63,68.14c-0.05,0.36-0.1,0.73-0.15,1.11
		c-0.05,0.38-0.09,0.76-0.12,1.13c-0.04,0.38-0.06,0.75-0.09,1.11c-0.02,0.36-0.03,0.71-0.03,1.05c0,0.16,0,0.3,0.01,0.42
		c0,0.12,0.01,0.21,0.02,0.29c0.01,0.08,0.02,0.14,0.03,0.19c0.01,0.05,0.03,0.08,0.05,0.11c0.02,0.03,0.04,0.04,0.07,0.05
		c0.03,0.01,0.06,0.01,0.1,0.01c0.07,0,0.14-0.01,0.22-0.03c0.08-0.02,0.16-0.05,0.24-0.09l0.04,0.11
		c-0.05,0.04-0.12,0.08-0.19,0.13c-0.08,0.04-0.16,0.08-0.24,0.12c-0.09,0.04-0.17,0.07-0.25,0.09c-0.08,0.02-0.15,0.03-0.21,0.03
		c-0.05,0-0.08,0-0.11-0.01c-0.03-0.01-0.06-0.03-0.08-0.05c-0.02-0.02-0.04-0.06-0.06-0.1c-0.02-0.04-0.03-0.09-0.04-0.16
		c-0.01-0.09-0.02-0.19-0.03-0.3c-0.01-0.11-0.01-0.24-0.01-0.37c0-0.14,0.01-0.29,0.02-0.43c0.01-0.15,0.03-0.29,0.05-0.44l-0.02,0
		c-0.11,0.29-0.23,0.55-0.36,0.78c-0.13,0.23-0.26,0.43-0.4,0.6c-0.14,0.16-0.27,0.29-0.41,0.38c-0.14,0.09-0.27,0.13-0.4,0.13
		c-0.13,0-0.24-0.03-0.33-0.1c-0.09-0.06-0.17-0.15-0.23-0.25c-0.06-0.11-0.1-0.23-0.13-0.37c-0.03-0.14-0.04-0.28-0.04-0.42
		c0-0.17,0.02-0.35,0.06-0.52c0.04-0.17,0.09-0.33,0.17-0.48c0.07-0.15,0.16-0.29,0.26-0.42c0.1-0.13,0.21-0.24,0.34-0.34
		c0.13-0.09,0.26-0.17,0.41-0.22c0.15-0.05,0.3-0.08,0.46-0.08c0.11,0,0.23,0.01,0.34,0.04c0.11,0.03,0.22,0.07,0.33,0.14
		c0.01-0.24,0.02-0.49,0.03-0.74c0.01-0.25,0.02-0.49,0.04-0.73c0.01-0.24,0.03-0.46,0.05-0.67c0.02-0.21,0.03-0.4,0.06-0.56
		c0-0.03,0.01-0.06,0.03-0.09c0.02-0.03,0.04-0.05,0.07-0.06c0.03-0.02,0.06-0.03,0.1-0.03c0.04-0.01,0.07-0.01,0.11-0.01
		C60.45,68.07,60.54,68.1,60.63,68.14z M55.08,71.49c0-0.07-0.01-0.13-0.03-0.18c-0.02-0.06-0.05-0.11-0.09-0.15
		c-0.04-0.04-0.08-0.08-0.14-0.1c-0.05-0.02-0.11-0.04-0.17-0.04c-0.09,0-0.18,0.02-0.25,0.05c-0.08,0.03-0.14,0.08-0.2,0.13
		c-0.06,0.06-0.11,0.12-0.16,0.2c-0.05,0.07-0.08,0.15-0.12,0.24c-0.03,0.08-0.06,0.17-0.08,0.26c-0.02,0.09-0.03,0.17-0.04,0.26
		c0.2-0.01,0.38-0.04,0.54-0.07c0.16-0.03,0.3-0.08,0.4-0.13c0.11-0.06,0.2-0.12,0.25-0.2C55.05,71.68,55.08,71.59,55.08,71.49z
		 M55.48,73.21c0.01,0,0.02,0.01,0.03,0.02c0.01,0.01,0.03,0.02,0.04,0.03c0.01,0.01,0.02,0.02,0.03,0.03
		c0.01,0.01,0.01,0.02,0.01,0.03c0,0.01,0,0.01-0.01,0.02c-0.08,0.11-0.17,0.21-0.26,0.29c-0.09,0.08-0.19,0.15-0.29,0.21
		c-0.1,0.05-0.2,0.09-0.3,0.12c-0.1,0.03-0.2,0.04-0.3,0.04c-0.17,0-0.33-0.03-0.47-0.1c-0.14-0.07-0.26-0.16-0.37-0.29
		c-0.1-0.12-0.18-0.26-0.24-0.43c-0.06-0.16-0.09-0.34-0.09-0.52c0-0.15,0.02-0.3,0.05-0.46c0.03-0.15,0.08-0.3,0.14-0.44
		c0.06-0.14,0.14-0.27,0.23-0.39c0.09-0.12,0.2-0.22,0.31-0.31c0.12-0.09,0.24-0.16,0.38-0.21c0.14-0.05,0.29-0.08,0.45-0.08
		c0.1,0,0.21,0.01,0.3,0.04c0.1,0.03,0.18,0.07,0.25,0.12c0.07,0.05,0.13,0.12,0.17,0.2c0.04,0.08,0.06,0.17,0.06,0.27
		c0,0.14-0.05,0.27-0.14,0.38c-0.09,0.11-0.23,0.2-0.39,0.28c-0.17,0.08-0.36,0.14-0.59,0.18c-0.22,0.05-0.47,0.08-0.73,0.1v0.03
		c0,0.18,0.02,0.35,0.07,0.5c0.05,0.15,0.11,0.28,0.19,0.39c0.08,0.11,0.18,0.19,0.29,0.25c0.11,0.06,0.23,0.09,0.35,0.09
		c0.13,0,0.26-0.03,0.39-0.09C55.21,73.45,55.35,73.35,55.48,73.21z M51.06,73.92l-0.03,0c0.01-0.14,0.02-0.28,0.03-0.44
		c0.01-0.16,0.02-0.32,0.03-0.48c0.01-0.16,0.02-0.33,0.02-0.49c0.01-0.16,0.01-0.31,0.02-0.45c0-0.14,0.01-0.27,0.01-0.38
		c0-0.11,0-0.2,0-0.26c0-0.05,0-0.1-0.01-0.14c0-0.04-0.01-0.07-0.03-0.1c-0.01-0.03-0.04-0.05-0.06-0.06
		c-0.03-0.01-0.07-0.02-0.11-0.02c-0.02,0-0.05,0-0.08,0c-0.02,0-0.05,0.01-0.08,0.01c-0.03,0.01-0.07,0.01-0.11,0.02
		c-0.04,0.01-0.08,0.02-0.14,0.03l-0.03-0.15c0.24-0.09,0.43-0.15,0.57-0.18c0.15-0.03,0.25-0.05,0.3-0.05
		c0.09,0,0.16,0.03,0.2,0.08c0.04,0.05,0.06,0.14,0.06,0.24c0,0.01,0,0.04,0,0.09c0,0.05-0.01,0.11-0.01,0.19
		c0,0.08-0.01,0.17-0.02,0.27c-0.01,0.1-0.02,0.21-0.02,0.33c-0.01,0.12-0.02,0.24-0.03,0.37c-0.01,0.13-0.02,0.25-0.04,0.38l0.02,0
		c0.07-0.28,0.15-0.54,0.23-0.78c0.09-0.24,0.18-0.45,0.29-0.63c0.11-0.18,0.23-0.32,0.36-0.42c0.13-0.1,0.27-0.15,0.42-0.15
		c0.06,0,0.1,0.01,0.15,0.03c0.05,0.02,0.09,0.04,0.12,0.07c0.03,0.03,0.06,0.07,0.08,0.11c0.02,0.04,0.03,0.09,0.03,0.14
		c0,0.06-0.01,0.13-0.04,0.19c-0.03,0.06-0.07,0.11-0.13,0.16h-0.02c-0.06-0.05-0.12-0.09-0.17-0.11c-0.05-0.02-0.11-0.03-0.17-0.03
		c-0.06,0-0.13,0.01-0.19,0.04c-0.06,0.02-0.11,0.06-0.16,0.1c-0.08,0.07-0.16,0.17-0.23,0.29c-0.07,0.12-0.13,0.26-0.19,0.4
		c-0.06,0.15-0.11,0.3-0.16,0.47c-0.05,0.16-0.09,0.32-0.12,0.48c-0.03,0.15-0.06,0.3-0.08,0.44c-0.02,0.14-0.04,0.25-0.04,0.34
		L51.06,73.92z M49.81,71.49c0-0.07-0.01-0.13-0.03-0.18c-0.02-0.06-0.05-0.11-0.09-0.15c-0.04-0.04-0.08-0.08-0.14-0.1
		c-0.05-0.02-0.11-0.04-0.17-0.04c-0.09,0-0.18,0.02-0.25,0.05c-0.08,0.03-0.14,0.08-0.2,0.13c-0.06,0.06-0.11,0.12-0.16,0.2
		c-0.05,0.07-0.08,0.15-0.12,0.24c-0.03,0.08-0.06,0.17-0.08,0.26c-0.02,0.09-0.03,0.17-0.04,0.26c0.2-0.01,0.38-0.04,0.54-0.07
		c0.16-0.03,0.3-0.08,0.4-0.13c0.11-0.06,0.2-0.12,0.25-0.2C49.78,71.68,49.81,71.59,49.81,71.49z M50.21,73.21
		c0.01,0,0.02,0.01,0.03,0.02c0.01,0.01,0.03,0.02,0.04,0.03c0.01,0.01,0.02,0.02,0.03,0.03c0.01,0.01,0.01,0.02,0.01,0.03
		c0,0.01,0,0.01-0.01,0.02c-0.08,0.11-0.17,0.21-0.26,0.29c-0.09,0.08-0.19,0.15-0.29,0.21c-0.1,0.05-0.2,0.09-0.3,0.12
		c-0.1,0.03-0.2,0.04-0.3,0.04c-0.17,0-0.33-0.03-0.47-0.1c-0.14-0.07-0.26-0.16-0.37-0.29c-0.1-0.12-0.18-0.26-0.24-0.43
		c-0.06-0.16-0.09-0.34-0.09-0.52c0-0.15,0.02-0.3,0.05-0.46c0.03-0.15,0.08-0.3,0.14-0.44c0.06-0.14,0.14-0.27,0.23-0.39
		c0.09-0.12,0.2-0.22,0.31-0.31c0.12-0.09,0.24-0.16,0.38-0.21c0.14-0.05,0.29-0.08,0.45-0.08c0.1,0,0.21,0.01,0.3,0.04
		c0.1,0.03,0.18,0.07,0.25,0.12c0.07,0.05,0.13,0.12,0.17,0.2c0.04,0.08,0.06,0.17,0.06,0.27c0,0.14-0.05,0.27-0.14,0.38
		c-0.09,0.11-0.23,0.2-0.39,0.28c-0.17,0.08-0.36,0.14-0.59,0.18c-0.22,0.05-0.47,0.08-0.73,0.1v0.03c0,0.18,0.02,0.35,0.07,0.5
		c0.05,0.15,0.11,0.28,0.19,0.39c0.08,0.11,0.18,0.19,0.29,0.25c0.11,0.06,0.23,0.09,0.35,0.09c0.13,0,0.26-0.03,0.39-0.09
		C49.94,73.45,50.08,73.35,50.21,73.21z M45.08,72.74c0.11-0.36,0.23-0.66,0.35-0.91c0.12-0.25,0.25-0.45,0.38-0.61
		c0.13-0.16,0.25-0.27,0.38-0.34c0.13-0.07,0.25-0.1,0.36-0.1c0.08,0,0.16,0.01,0.23,0.05c0.07,0.03,0.14,0.08,0.2,0.14
		c0.06,0.06,0.1,0.15,0.14,0.25c0.03,0.1,0.05,0.22,0.05,0.36c0,0.04,0,0.1-0.01,0.17c-0.01,0.07-0.01,0.15-0.02,0.24
		c-0.01,0.09-0.01,0.19-0.02,0.29c-0.01,0.1-0.02,0.2-0.02,0.29c-0.01,0.1-0.01,0.19-0.02,0.28c0,0.09-0.01,0.16-0.01,0.22
		c0,0.11,0,0.2,0.01,0.27c0.01,0.07,0.02,0.12,0.05,0.16c0.02,0.04,0.05,0.07,0.08,0.08c0.04,0.02,0.08,0.02,0.13,0.02
		c0.07,0,0.15-0.01,0.23-0.03c0.08-0.02,0.16-0.05,0.24-0.09l0.04,0.11c-0.05,0.04-0.12,0.08-0.19,0.13
		c-0.08,0.04-0.16,0.08-0.25,0.12c-0.09,0.04-0.17,0.07-0.26,0.09c-0.08,0.02-0.16,0.03-0.23,0.03c-0.08,0-0.14-0.02-0.18-0.06
		c-0.05-0.04-0.08-0.1-0.1-0.17c-0.02-0.07-0.03-0.15-0.04-0.25c-0.01-0.1-0.01-0.2-0.01-0.31c0-0.13,0-0.27,0.01-0.41
		c0.01-0.14,0.02-0.28,0.03-0.41c0.01-0.13,0.02-0.25,0.03-0.36c0.01-0.11,0.01-0.19,0.01-0.26c0-0.16-0.03-0.28-0.09-0.35
		c-0.06-0.08-0.14-0.12-0.25-0.12c-0.08,0-0.17,0.03-0.26,0.1c-0.09,0.07-0.18,0.17-0.27,0.29c-0.09,0.12-0.18,0.26-0.26,0.43
		c-0.08,0.17-0.16,0.35-0.23,0.54c-0.07,0.19-0.12,0.39-0.17,0.6c-0.04,0.21-0.07,0.42-0.08,0.63l-0.45,0.06l-0.03,0
		c0.01-0.17,0.02-0.35,0.03-0.56c0.01-0.2,0.02-0.42,0.03-0.65c0.01-0.23,0.02-0.46,0.04-0.71c0.01-0.25,0.03-0.5,0.04-0.75
		c0.01-0.26,0.03-0.51,0.04-0.77c0.01-0.26,0.03-0.52,0.04-0.77c0.01-0.25,0.03-0.5,0.04-0.75c0.01-0.24,0.02-0.47,0.04-0.7
		c0-0.03,0.01-0.06,0.03-0.09c0.02-0.03,0.04-0.05,0.07-0.06c0.03-0.02,0.06-0.03,0.1-0.03c0.04-0.01,0.08-0.01,0.12-0.01
		c0.09,0,0.17,0.02,0.27,0.07c-0.03,0.29-0.06,0.56-0.09,0.8c-0.02,0.24-0.05,0.47-0.07,0.67c-0.02,0.21-0.04,0.4-0.06,0.58
		c-0.02,0.18-0.03,0.35-0.05,0.51c-0.01,0.16-0.03,0.32-0.04,0.48c-0.01,0.16-0.02,0.31-0.03,0.48c-0.01,0.16-0.02,0.33-0.03,0.5
		c-0.01,0.17-0.03,0.36-0.04,0.56L45.08,72.74z M42.01,73.95l-0.05-0.01c-0.04-0.26-0.08-0.51-0.12-0.73
		c-0.04-0.23-0.08-0.44-0.12-0.64c-0.04-0.2-0.08-0.39-0.12-0.57c-0.04-0.18-0.08-0.36-0.12-0.53c-0.05-0.24-0.1-0.45-0.14-0.65
		c-0.04-0.2-0.08-0.39-0.13-0.57H41.2c-0.06,0.21-0.12,0.4-0.17,0.6c-0.06,0.19-0.12,0.38-0.18,0.57c-0.06,0.19-0.13,0.38-0.19,0.57
		c-0.07,0.19-0.14,0.39-0.21,0.59c-0.07,0.2-0.15,0.42-0.23,0.64c-0.08,0.22-0.17,0.46-0.27,0.72l-0.37,0.03l-0.04-0.01
		c-0.23-1.14-0.42-2.06-0.58-2.77c-0.16-0.71-0.29-1.2-0.39-1.48c-0.02-0.08-0.05-0.14-0.08-0.2c-0.03-0.05-0.06-0.1-0.1-0.13
		c-0.04-0.03-0.08-0.06-0.14-0.07c-0.05-0.02-0.11-0.02-0.19-0.02c-0.05,0-0.1,0-0.15,0.01c-0.06,0.01-0.12,0.02-0.19,0.03
		l-0.02-0.19c0.22-0.05,0.4-0.09,0.55-0.12c0.15-0.03,0.27-0.04,0.36-0.04c0.07,0,0.14,0.01,0.19,0.03c0.05,0.02,0.09,0.05,0.13,0.1
		c0.03,0.05,0.06,0.1,0.09,0.18c0.03,0.07,0.05,0.16,0.08,0.26c0.04,0.15,0.09,0.33,0.15,0.56c0.06,0.23,0.12,0.5,0.19,0.8
		c0.07,0.31,0.14,0.66,0.23,1.05c0.08,0.39,0.17,0.83,0.25,1.3h0.02c0.07-0.19,0.14-0.4,0.22-0.61c0.08-0.22,0.15-0.44,0.23-0.67
		c0.08-0.23,0.16-0.46,0.23-0.7c0.08-0.24,0.16-0.47,0.23-0.71c0.08-0.24,0.15-0.47,0.22-0.7c0.07-0.23,0.14-0.46,0.2-0.67
		c0.01-0.02,0.02-0.04,0.05-0.06c0.03-0.01,0.06-0.02,0.09-0.02c0.03,0,0.06,0,0.08,0.01c0.04,0.14,0.08,0.31,0.13,0.51
		c0.05,0.2,0.1,0.41,0.15,0.64c0.05,0.23,0.1,0.47,0.16,0.72c0.06,0.25,0.11,0.51,0.16,0.77c0.05,0.26,0.1,0.52,0.15,0.77
		c0.05,0.26,0.1,0.5,0.14,0.73h0.01c0.1-0.21,0.2-0.44,0.31-0.67c0.1-0.23,0.2-0.46,0.29-0.69c0.09-0.23,0.18-0.45,0.26-0.68
		c0.08-0.22,0.15-0.43,0.21-0.63c0.06-0.2,0.1-0.38,0.14-0.55c0.03-0.17,0.05-0.31,0.05-0.43c0-0.07-0.01-0.14-0.02-0.21
		c-0.01-0.07-0.03-0.14-0.05-0.2c-0.02-0.06-0.06-0.12-0.09-0.17c-0.04-0.05-0.08-0.09-0.13-0.12l0.01-0.04
		c0.03,0,0.06-0.01,0.08-0.01c0.03,0,0.06,0,0.09,0c0.08,0,0.16,0.01,0.23,0.03c0.07,0.02,0.14,0.05,0.19,0.09
		c0.06,0.04,0.1,0.1,0.13,0.17c0.03,0.07,0.05,0.15,0.05,0.24c0,0.07-0.01,0.17-0.04,0.29c-0.02,0.12-0.06,0.26-0.11,0.41
		c-0.05,0.16-0.1,0.33-0.17,0.51c-0.07,0.19-0.14,0.38-0.22,0.59c-0.08,0.21-0.17,0.42-0.27,0.65c-0.09,0.23-0.19,0.45-0.3,0.69
		c-0.1,0.23-0.21,0.47-0.32,0.7c-0.11,0.24-0.22,0.47-0.33,0.7L42.01,73.95z"/>
	<path class="st0" d="M94.82,71.49c0-0.07-0.01-0.13-0.03-0.18c-0.02-0.06-0.05-0.11-0.09-0.15c-0.04-0.04-0.08-0.08-0.14-0.1
		c-0.05-0.02-0.11-0.04-0.17-0.04c-0.09,0-0.18,0.02-0.25,0.05c-0.08,0.03-0.14,0.08-0.2,0.13c-0.06,0.06-0.11,0.12-0.16,0.2
		c-0.05,0.07-0.08,0.15-0.12,0.24c-0.03,0.08-0.06,0.17-0.08,0.26c-0.02,0.09-0.03,0.17-0.04,0.26c0.2-0.01,0.38-0.04,0.54-0.07
		c0.16-0.03,0.3-0.08,0.4-0.13c0.11-0.06,0.2-0.12,0.25-0.2C94.79,71.68,94.82,71.59,94.82,71.49 M95.22,73.21
		c0.01,0,0.02,0.01,0.03,0.02c0.01,0.01,0.03,0.02,0.04,0.03c0.01,0.01,0.02,0.02,0.03,0.03c0.01,0.01,0.01,0.02,0.01,0.03
		c0,0.01,0,0.01-0.01,0.02c-0.08,0.11-0.17,0.21-0.26,0.29c-0.09,0.08-0.19,0.15-0.29,0.21c-0.1,0.05-0.2,0.09-0.3,0.12
		c-0.1,0.03-0.2,0.04-0.3,0.04c-0.17,0-0.33-0.03-0.47-0.1c-0.14-0.07-0.26-0.16-0.37-0.29c-0.1-0.12-0.18-0.26-0.24-0.43
		c-0.06-0.16-0.09-0.34-0.09-0.52c0-0.15,0.02-0.3,0.05-0.46c0.03-0.15,0.08-0.3,0.14-0.44c0.06-0.14,0.14-0.27,0.23-0.39
		c0.09-0.12,0.2-0.22,0.31-0.31c0.12-0.09,0.24-0.16,0.38-0.21c0.14-0.05,0.29-0.08,0.45-0.08c0.1,0,0.21,0.01,0.3,0.04
		c0.1,0.03,0.18,0.07,0.25,0.12c0.07,0.05,0.13,0.12,0.17,0.2c0.04,0.08,0.06,0.17,0.06,0.27c0,0.14-0.05,0.27-0.14,0.38
		c-0.09,0.11-0.23,0.2-0.39,0.28c-0.17,0.08-0.36,0.14-0.59,0.18c-0.22,0.05-0.47,0.08-0.73,0.1v0.03c0,0.18,0.02,0.35,0.07,0.5
		c0.05,0.15,0.11,0.28,0.19,0.39c0.08,0.11,0.18,0.19,0.29,0.25c0.11,0.06,0.23,0.09,0.35,0.09c0.13,0,0.26-0.03,0.39-0.09
		C94.95,73.45,95.09,73.35,95.22,73.21z M90.22,73.43c0.12,0.1,0.24,0.18,0.36,0.23c0.12,0.05,0.24,0.07,0.36,0.07
		c0.16,0,0.31-0.03,0.44-0.1c0.13-0.07,0.25-0.17,0.35-0.3c0.1-0.13,0.17-0.3,0.23-0.5c0.05-0.2,0.08-0.43,0.08-0.69
		c0-0.1-0.01-0.2-0.02-0.3c-0.02-0.1-0.04-0.2-0.07-0.28c-0.03-0.08-0.07-0.15-0.13-0.21c-0.05-0.05-0.12-0.08-0.19-0.08
		c-0.09,0-0.17,0.02-0.26,0.07c-0.09,0.05-0.17,0.11-0.25,0.18c-0.08,0.08-0.16,0.16-0.23,0.27c-0.07,0.1-0.14,0.21-0.21,0.32
		c-0.07,0.12-0.13,0.23-0.18,0.35c-0.05,0.12-0.1,0.24-0.14,0.36c-0.04,0.12-0.07,0.22-0.1,0.33
		C90.24,73.26,90.22,73.35,90.22,73.43z M89.11,71.02c0.16-0.05,0.3-0.09,0.41-0.12c0.11-0.03,0.21-0.05,0.28-0.07
		c0.08-0.02,0.14-0.03,0.18-0.03c0.04-0.01,0.08-0.01,0.1-0.01c0.03,0,0.07,0.01,0.1,0.02c0.03,0.01,0.06,0.03,0.08,0.06
		c0.02,0.02,0.04,0.06,0.05,0.1c0.01,0.04,0.02,0.1,0.02,0.16c0,0.02,0,0.06,0,0.13c0,0.06-0.01,0.15-0.01,0.26
		c-0.01,0.11-0.01,0.24-0.02,0.4c-0.01,0.16-0.02,0.35-0.03,0.56l0.02,0c0.11-0.28,0.23-0.52,0.36-0.73
		c0.13-0.21,0.26-0.39,0.39-0.54c0.13-0.14,0.26-0.25,0.4-0.33c0.13-0.07,0.26-0.11,0.38-0.11c0.1,0,0.18,0.02,0.26,0.05
		c0.07,0.04,0.14,0.09,0.19,0.15c0.05,0.06,0.1,0.13,0.14,0.21c0.04,0.08,0.07,0.16,0.09,0.25c0.02,0.09,0.04,0.17,0.05,0.26
		c0.01,0.09,0.02,0.17,0.02,0.25c0,0.21-0.02,0.4-0.06,0.59c-0.04,0.18-0.1,0.35-0.18,0.5c-0.07,0.15-0.16,0.29-0.26,0.41
		c-0.1,0.12-0.21,0.22-0.33,0.3c-0.12,0.08-0.24,0.14-0.37,0.19c-0.13,0.04-0.26,0.07-0.39,0.07c-0.14,0-0.27-0.02-0.4-0.07
		c-0.13-0.05-0.25-0.13-0.37-0.25c-0.02,0.36-0.03,0.73-0.05,1.11c-0.02,0.38-0.02,0.78-0.03,1.19l-0.45,0.05l-0.04,0
		c0.02-0.27,0.04-0.54,0.06-0.84c0.02-0.29,0.03-0.59,0.05-0.88c0.02-0.29,0.03-0.58,0.04-0.87c0.01-0.29,0.02-0.55,0.03-0.8
		c0.01-0.25,0.02-0.48,0.02-0.68c0-0.21,0.01-0.37,0.01-0.51c0-0.05,0-0.1-0.01-0.14c-0.01-0.04-0.02-0.07-0.03-0.1
		c-0.02-0.03-0.04-0.05-0.07-0.06c-0.03-0.01-0.07-0.02-0.12-0.02c-0.05,0-0.12,0.01-0.19,0.02c-0.08,0.01-0.17,0.03-0.27,0.06
		L89.11,71.02z M86.6,73.43c0.12,0.1,0.24,0.18,0.36,0.23c0.12,0.05,0.24,0.07,0.36,0.07c0.16,0,0.31-0.03,0.44-0.1
		c0.13-0.07,0.25-0.17,0.35-0.3c0.1-0.13,0.17-0.3,0.23-0.5c0.05-0.2,0.08-0.43,0.08-0.69c0-0.1-0.01-0.2-0.02-0.3
		c-0.02-0.1-0.04-0.2-0.07-0.28c-0.03-0.08-0.07-0.15-0.13-0.21c-0.05-0.05-0.12-0.08-0.19-0.08c-0.09,0-0.17,0.02-0.26,0.07
		c-0.09,0.05-0.17,0.11-0.25,0.18c-0.08,0.08-0.16,0.16-0.23,0.27c-0.07,0.1-0.14,0.21-0.21,0.32c-0.07,0.12-0.13,0.23-0.18,0.35
		c-0.05,0.12-0.1,0.24-0.14,0.36c-0.04,0.12-0.07,0.22-0.1,0.33C86.63,73.26,86.61,73.35,86.6,73.43z M85.5,71.02
		c0.16-0.05,0.3-0.09,0.41-0.12c0.11-0.03,0.21-0.05,0.28-0.07c0.08-0.02,0.14-0.03,0.18-0.03c0.04-0.01,0.08-0.01,0.1-0.01
		c0.03,0,0.07,0.01,0.1,0.02c0.03,0.01,0.06,0.03,0.08,0.06c0.02,0.02,0.04,0.06,0.05,0.1c0.01,0.04,0.02,0.1,0.02,0.16
		c0,0.02,0,0.06,0,0.13c0,0.06-0.01,0.15-0.01,0.26c-0.01,0.11-0.01,0.24-0.02,0.4c-0.01,0.16-0.02,0.35-0.03,0.56l0.02,0
		c0.11-0.28,0.23-0.52,0.36-0.73c0.13-0.21,0.26-0.39,0.39-0.54c0.13-0.14,0.26-0.25,0.4-0.33c0.13-0.07,0.26-0.11,0.38-0.11
		c0.1,0,0.18,0.02,0.26,0.05c0.07,0.04,0.14,0.09,0.19,0.15c0.05,0.06,0.1,0.13,0.14,0.21c0.04,0.08,0.07,0.16,0.09,0.25
		c0.02,0.09,0.04,0.17,0.05,0.26c0.01,0.09,0.02,0.17,0.02,0.25c0,0.21-0.02,0.4-0.06,0.59c-0.04,0.18-0.1,0.35-0.18,0.5
		c-0.07,0.15-0.16,0.29-0.26,0.41c-0.1,0.12-0.21,0.22-0.33,0.3c-0.12,0.08-0.24,0.14-0.37,0.19c-0.13,0.04-0.26,0.07-0.39,0.07
		c-0.14,0-0.27-0.02-0.4-0.07c-0.13-0.05-0.25-0.13-0.37-0.25c-0.02,0.36-0.03,0.73-0.05,1.11c-0.02,0.38-0.02,0.78-0.03,1.19
		l-0.45,0.05l-0.04,0c0.02-0.27,0.04-0.54,0.06-0.84c0.02-0.29,0.03-0.59,0.05-0.88c0.02-0.29,0.03-0.58,0.04-0.87
		c0.01-0.29,0.02-0.55,0.03-0.8c0.01-0.25,0.02-0.48,0.02-0.68c0-0.21,0.01-0.37,0.01-0.51c0-0.05,0-0.1-0.01-0.14
		c-0.01-0.04-0.02-0.07-0.03-0.1c-0.02-0.03-0.04-0.05-0.07-0.06c-0.03-0.01-0.07-0.02-0.12-0.02c-0.05,0-0.12,0.01-0.19,0.02
		c-0.08,0.01-0.17,0.03-0.27,0.06L85.5,71.02z M83.19,73.14c0,0.06,0.01,0.11,0.02,0.16c0.01,0.05,0.03,0.09,0.06,0.13
		c0.03,0.04,0.06,0.07,0.1,0.09c0.04,0.02,0.09,0.03,0.15,0.03c0.06,0,0.13-0.01,0.2-0.05c0.07-0.03,0.14-0.07,0.2-0.12
		c0.07-0.05,0.13-0.11,0.19-0.19c0.06-0.07,0.11-0.15,0.16-0.24c0.05-0.09,0.09-0.18,0.12-0.27c0.03-0.1,0.05-0.2,0.06-0.3
		c-0.11,0-0.21,0.01-0.31,0.02c-0.1,0.01-0.2,0.03-0.3,0.05c-0.09,0.02-0.18,0.05-0.26,0.09c-0.08,0.04-0.15,0.08-0.21,0.14
		c-0.06,0.06-0.1,0.12-0.14,0.2C83.2,72.96,83.19,73.04,83.19,73.14z M84.5,71.68c0-0.11-0.02-0.21-0.06-0.29
		c-0.04-0.08-0.09-0.15-0.15-0.2c-0.06-0.05-0.13-0.09-0.2-0.12c-0.08-0.03-0.15-0.04-0.23-0.04c-0.1,0-0.19,0.01-0.26,0.03
		c-0.07,0.02-0.13,0.05-0.17,0.09c-0.04,0.04-0.07,0.08-0.09,0.13c-0.02,0.05-0.03,0.11-0.03,0.16c0,0.07,0.01,0.14,0.04,0.21
		c0.02,0.07,0.06,0.14,0.11,0.2l-0.01,0.02c-0.08,0.04-0.16,0.06-0.24,0.06c-0.05,0-0.09-0.01-0.14-0.02
		c-0.04-0.01-0.08-0.04-0.11-0.07c-0.03-0.03-0.05-0.06-0.07-0.1c-0.02-0.04-0.03-0.09-0.03-0.14c0-0.08,0.02-0.16,0.06-0.24
		c0.04-0.07,0.09-0.14,0.16-0.2c0.07-0.06,0.15-0.12,0.23-0.16c0.09-0.05,0.18-0.09,0.27-0.12c0.09-0.03,0.19-0.06,0.28-0.08
		c0.09-0.02,0.18-0.03,0.26-0.03c0.15,0,0.28,0.02,0.38,0.06c0.1,0.04,0.19,0.1,0.26,0.17c0.07,0.08,0.11,0.17,0.14,0.28
		c0.03,0.11,0.05,0.23,0.05,0.37c0,0.09,0,0.2-0.01,0.31c-0.01,0.11-0.02,0.23-0.03,0.35c-0.01,0.12-0.02,0.25-0.03,0.38
		c-0.01,0.13-0.01,0.26-0.01,0.39c0,0.21,0.04,0.36,0.12,0.46c0.08,0.1,0.17,0.15,0.3,0.15c0.11,0,0.23-0.04,0.37-0.12l0.06,0.09
		c-0.1,0.09-0.2,0.17-0.31,0.22c-0.11,0.05-0.23,0.08-0.35,0.08c-0.09,0-0.18-0.02-0.26-0.05c-0.08-0.03-0.15-0.08-0.2-0.14
		c-0.06-0.06-0.1-0.14-0.13-0.23c-0.03-0.09-0.05-0.2-0.05-0.33c0-0.04,0-0.07,0-0.11c0-0.04,0.01-0.08,0.01-0.12h-0.01
		c-0.06,0.12-0.13,0.24-0.21,0.36c-0.08,0.12-0.17,0.23-0.27,0.32c-0.1,0.09-0.2,0.17-0.31,0.23c-0.11,0.06-0.22,0.09-0.34,0.09
		c-0.1,0-0.19-0.02-0.27-0.05c-0.08-0.03-0.15-0.08-0.21-0.14c-0.06-0.06-0.1-0.13-0.13-0.21c-0.03-0.08-0.05-0.17-0.05-0.27
		c0-0.13,0.02-0.24,0.07-0.34c0.05-0.1,0.11-0.19,0.19-0.28c0.08-0.08,0.18-0.15,0.29-0.21c0.11-0.06,0.24-0.11,0.37-0.15
		c0.13-0.04,0.28-0.07,0.43-0.09c0.15-0.02,0.3-0.03,0.46-0.03c0.01-0.09,0.02-0.18,0.02-0.26C84.49,71.87,84.5,71.78,84.5,71.68z
		 M79.74,72.74c0.11-0.36,0.23-0.66,0.35-0.91c0.12-0.25,0.25-0.45,0.38-0.61c0.13-0.16,0.25-0.27,0.38-0.34
		c0.13-0.07,0.25-0.1,0.36-0.1c0.08,0,0.16,0.01,0.23,0.05c0.07,0.03,0.14,0.08,0.2,0.14c0.06,0.06,0.1,0.15,0.14,0.25
		c0.03,0.1,0.05,0.22,0.05,0.36c0,0.04,0,0.1-0.01,0.17c-0.01,0.07-0.01,0.15-0.02,0.24c-0.01,0.09-0.01,0.19-0.02,0.29
		c-0.01,0.1-0.02,0.2-0.02,0.29c-0.01,0.1-0.01,0.19-0.02,0.28c0,0.09-0.01,0.16-0.01,0.22c0,0.11,0,0.2,0.01,0.27
		c0.01,0.07,0.02,0.12,0.05,0.16c0.02,0.04,0.05,0.07,0.08,0.08c0.04,0.02,0.08,0.02,0.13,0.02c0.07,0,0.15-0.01,0.23-0.03
		c0.08-0.02,0.16-0.05,0.24-0.09l0.04,0.11c-0.05,0.04-0.12,0.08-0.19,0.13c-0.08,0.04-0.16,0.08-0.25,0.12
		c-0.09,0.04-0.17,0.07-0.26,0.09c-0.08,0.02-0.16,0.03-0.23,0.03c-0.08,0-0.14-0.02-0.18-0.06c-0.05-0.04-0.08-0.1-0.1-0.17
		c-0.02-0.07-0.03-0.15-0.04-0.25c-0.01-0.1-0.01-0.2-0.01-0.31c0-0.13,0-0.27,0.01-0.41c0.01-0.14,0.02-0.28,0.03-0.41
		c0.01-0.13,0.02-0.25,0.03-0.36c0.01-0.11,0.01-0.19,0.01-0.26c0-0.16-0.03-0.28-0.09-0.35c-0.06-0.08-0.14-0.12-0.25-0.12
		c-0.08,0-0.17,0.03-0.26,0.1c-0.09,0.07-0.18,0.17-0.27,0.29c-0.09,0.12-0.18,0.26-0.26,0.43c-0.08,0.17-0.16,0.35-0.23,0.54
		c-0.07,0.19-0.12,0.39-0.17,0.6c-0.04,0.21-0.07,0.42-0.08,0.63l-0.45,0.06l-0.03,0c0.01-0.17,0.02-0.35,0.03-0.56
		c0.01-0.2,0.02-0.42,0.03-0.65c0.01-0.23,0.02-0.46,0.04-0.71c0.01-0.25,0.03-0.5,0.04-0.75c0.01-0.26,0.03-0.51,0.04-0.77
		c0.01-0.26,0.03-0.52,0.04-0.77c0.01-0.25,0.03-0.5,0.04-0.75c0.01-0.24,0.02-0.47,0.04-0.7c0-0.03,0.01-0.06,0.03-0.09
		c0.02-0.03,0.04-0.05,0.07-0.06c0.03-0.02,0.06-0.03,0.1-0.03c0.04-0.01,0.08-0.01,0.12-0.01c0.09,0,0.17,0.02,0.27,0.07
		c-0.03,0.29-0.06,0.56-0.09,0.8c-0.02,0.24-0.05,0.47-0.07,0.67c-0.02,0.21-0.04,0.4-0.06,0.58c-0.02,0.18-0.03,0.35-0.05,0.51
		c-0.01,0.16-0.03,0.32-0.04,0.48c-0.01,0.16-0.02,0.31-0.03,0.48c-0.01,0.16-0.02,0.33-0.03,0.5c-0.01,0.17-0.03,0.36-0.04,0.56
		L79.74,72.74z M75.35,73.1c0.01,0.11,0.04,0.2,0.09,0.28c0.05,0.08,0.11,0.14,0.18,0.19c0.07,0.05,0.15,0.09,0.23,0.11
		c0.08,0.02,0.17,0.04,0.25,0.04c0.08,0,0.15-0.01,0.23-0.03c0.07-0.02,0.14-0.05,0.19-0.09c0.06-0.04,0.1-0.09,0.13-0.15
		c0.03-0.06,0.05-0.12,0.05-0.2c0-0.08-0.02-0.14-0.05-0.2c-0.04-0.06-0.08-0.11-0.14-0.16c-0.06-0.05-0.13-0.09-0.21-0.13
		c-0.08-0.04-0.16-0.08-0.25-0.12c-0.08-0.03-0.15-0.07-0.23-0.11c-0.08-0.04-0.15-0.08-0.22-0.12c-0.07-0.04-0.14-0.09-0.2-0.14
		c-0.06-0.05-0.12-0.1-0.16-0.17c-0.05-0.06-0.08-0.13-0.11-0.2c-0.03-0.07-0.04-0.16-0.04-0.25c0-0.1,0.02-0.19,0.05-0.27
		c0.03-0.08,0.08-0.16,0.14-0.22c0.06-0.07,0.13-0.12,0.21-0.17c0.08-0.05,0.16-0.09,0.25-0.13c0.09-0.03,0.18-0.06,0.27-0.07
		c0.09-0.02,0.18-0.02,0.27-0.02c0.11,0,0.22,0.01,0.32,0.04c0.1,0.02,0.19,0.06,0.27,0.11c0.08,0.05,0.14,0.11,0.18,0.17
		c0.05,0.07,0.07,0.14,0.07,0.23c0,0.03,0,0.07-0.02,0.11c-0.01,0.04-0.03,0.07-0.06,0.11c-0.03,0.03-0.06,0.06-0.11,0.08
		c-0.04,0.02-0.1,0.03-0.16,0.04c-0.06,0-0.12-0.01-0.19-0.03l-0.01-0.02c0.02-0.05,0.03-0.09,0.04-0.13
		c0.01-0.04,0.01-0.07,0.01-0.11c0-0.07-0.02-0.12-0.05-0.17c-0.03-0.05-0.07-0.08-0.12-0.11c-0.05-0.03-0.1-0.05-0.16-0.06
		c-0.06-0.01-0.12-0.02-0.17-0.02c-0.1,0-0.19,0.01-0.27,0.04c-0.08,0.03-0.15,0.06-0.2,0.11c-0.06,0.05-0.1,0.09-0.13,0.15
		c-0.03,0.06-0.04,0.12-0.04,0.18c0,0.08,0.02,0.15,0.06,0.21c0.04,0.06,0.1,0.12,0.16,0.17c0.07,0.05,0.15,0.1,0.23,0.15
		c0.09,0.05,0.18,0.09,0.28,0.14c0.11,0.05,0.22,0.1,0.32,0.16c0.11,0.05,0.2,0.12,0.29,0.19c0.08,0.07,0.15,0.15,0.2,0.24
		c0.05,0.09,0.08,0.2,0.08,0.32c0,0.15-0.03,0.28-0.1,0.39c-0.07,0.11-0.15,0.21-0.26,0.29c-0.11,0.08-0.23,0.14-0.37,0.18
		c-0.14,0.04-0.29,0.06-0.44,0.06c-0.08,0-0.15-0.01-0.23-0.02c-0.08-0.01-0.16-0.03-0.23-0.05c-0.08-0.02-0.15-0.05-0.21-0.08
		c-0.07-0.03-0.13-0.07-0.18-0.11c-0.05-0.04-0.09-0.09-0.12-0.15c-0.03-0.05-0.04-0.11-0.04-0.18c0-0.06,0.01-0.1,0.03-0.14
		c0.02-0.04,0.05-0.07,0.09-0.09c0.04-0.02,0.08-0.04,0.13-0.05c0.05-0.01,0.1-0.02,0.15-0.02L75.35,73.1z M69.36,71.03
		c0.1-0.03,0.2-0.07,0.29-0.1c0.09-0.03,0.18-0.06,0.26-0.08c0.08-0.02,0.15-0.04,0.21-0.05c0.06-0.01,0.11-0.02,0.14-0.02
		c0.08,0,0.15,0.02,0.19,0.07c0.05,0.05,0.07,0.13,0.07,0.25c0,0.03,0,0.09-0.01,0.18c-0.01,0.09-0.01,0.21-0.02,0.35
		c-0.01,0.14-0.02,0.3-0.04,0.48c-0.01,0.18-0.03,0.37-0.05,0.58l0.01,0c0.1-0.36,0.21-0.67,0.32-0.91
		c0.11-0.25,0.23-0.44,0.34-0.59c0.12-0.15,0.23-0.26,0.35-0.32c0.12-0.07,0.23-0.1,0.34-0.1c0.1,0,0.18,0.02,0.25,0.07
		c0.07,0.05,0.12,0.11,0.17,0.19c0.04,0.08,0.07,0.17,0.09,0.27c0.02,0.1,0.03,0.2,0.03,0.3c0,0.09,0,0.19-0.01,0.29
		c-0.01,0.1-0.01,0.2-0.02,0.3c-0.01,0.1-0.02,0.19-0.03,0.28c-0.01,0.09-0.02,0.16-0.02,0.23l0.01,0c0.1-0.37,0.21-0.68,0.32-0.92
		c0.11-0.25,0.23-0.45,0.35-0.6c0.12-0.15,0.23-0.26,0.35-0.32c0.12-0.06,0.23-0.1,0.34-0.1c0.07,0,0.14,0.01,0.21,0.04
		c0.07,0.03,0.13,0.08,0.18,0.14c0.05,0.07,0.09,0.15,0.12,0.25c0.03,0.1,0.05,0.23,0.05,0.38c0,0.04,0,0.1-0.01,0.17
		c-0.01,0.07-0.01,0.15-0.02,0.24c-0.01,0.09-0.01,0.18-0.02,0.28c-0.01,0.1-0.02,0.2-0.02,0.29c-0.01,0.09-0.01,0.19-0.02,0.27
		c0,0.09-0.01,0.16-0.01,0.22c0,0.11,0,0.2,0.01,0.27c0.01,0.07,0.02,0.12,0.05,0.16c0.02,0.04,0.05,0.07,0.08,0.08
		c0.04,0.02,0.08,0.02,0.13,0.02c0.07,0,0.15-0.01,0.23-0.03c0.08-0.02,0.16-0.05,0.24-0.09l0.04,0.11
		c-0.05,0.04-0.11,0.08-0.19,0.13c-0.08,0.04-0.16,0.08-0.25,0.12c-0.09,0.04-0.17,0.07-0.26,0.09c-0.08,0.02-0.16,0.03-0.23,0.03
		c-0.08,0-0.14-0.02-0.18-0.06c-0.05-0.04-0.08-0.1-0.1-0.17c-0.02-0.07-0.03-0.15-0.04-0.25c-0.01-0.1-0.01-0.2-0.01-0.31
		c0-0.13,0-0.27,0.01-0.42c0.01-0.14,0.02-0.28,0.03-0.41c0.01-0.13,0.02-0.25,0.03-0.36c0.01-0.11,0.01-0.18,0.01-0.24
		c0-0.15-0.03-0.27-0.08-0.35c-0.06-0.08-0.13-0.12-0.22-0.12c-0.07,0-0.15,0.03-0.23,0.1c-0.08,0.07-0.16,0.16-0.25,0.29
		c-0.08,0.12-0.16,0.26-0.24,0.43c-0.08,0.16-0.15,0.34-0.21,0.53c-0.06,0.19-0.11,0.39-0.15,0.6c-0.04,0.21-0.07,0.42-0.08,0.63
		l-0.45,0.06l-0.03,0c0.02-0.3,0.03-0.56,0.04-0.79c0.01-0.23,0.03-0.43,0.04-0.6c0.01-0.17,0.02-0.32,0.03-0.44
		c0.01-0.12,0.01-0.22,0.01-0.3c0-0.16-0.03-0.28-0.08-0.36c-0.06-0.08-0.13-0.12-0.21-0.12c-0.08,0-0.16,0.03-0.24,0.1
		c-0.08,0.07-0.16,0.16-0.25,0.28c-0.08,0.12-0.16,0.26-0.23,0.42c-0.08,0.16-0.14,0.34-0.2,0.53c-0.06,0.19-0.11,0.39-0.15,0.6
		c-0.04,0.21-0.07,0.42-0.08,0.63l-0.45,0.06l-0.03,0c0.01-0.14,0.02-0.28,0.03-0.44c0.01-0.16,0.02-0.32,0.03-0.48
		c0.01-0.16,0.02-0.33,0.02-0.49c0.01-0.16,0.01-0.31,0.02-0.45c0-0.14,0.01-0.27,0.01-0.38c0-0.11,0-0.2,0-0.26
		c0-0.06,0-0.11-0.01-0.15c-0.01-0.04-0.02-0.07-0.04-0.09c-0.02-0.02-0.04-0.04-0.07-0.05c-0.03-0.01-0.06-0.02-0.1-0.02
		c-0.05,0-0.11,0.01-0.18,0.02c-0.07,0.01-0.15,0.03-0.24,0.06L69.36,71.03z"/>
	<path class="st0" d="M96.16,71.41c0-0.06,0-0.11-0.01-0.15c-0.01-0.04-0.02-0.07-0.04-0.09c-0.02-0.02-0.04-0.04-0.07-0.05
		c-0.03-0.01-0.06-0.02-0.1-0.02c-0.05,0-0.11,0.01-0.18,0.02c-0.07,0.01-0.15,0.03-0.24,0.06l-0.03-0.15
		c0.1-0.03,0.2-0.07,0.29-0.1c0.09-0.03,0.18-0.06,0.26-0.08c0.08-0.02,0.15-0.04,0.21-0.05c0.06-0.01,0.11-0.02,0.14-0.02
		c0.08,0,0.15,0.02,0.19,0.07c0.05,0.05,0.07,0.13,0.07,0.25c0,0.01,0,0.05,0,0.1c0,0.05-0.01,0.12-0.01,0.2
		c0,0.08-0.01,0.17-0.02,0.27c-0.01,0.1-0.02,0.21-0.02,0.33c-0.01,0.12-0.02,0.24-0.03,0.36c-0.01,0.12-0.02,0.25-0.04,0.37l0.01,0
		c0.11-0.37,0.22-0.68,0.35-0.93c0.12-0.25,0.25-0.46,0.38-0.61c0.13-0.16,0.26-0.27,0.38-0.34c0.13-0.07,0.25-0.1,0.36-0.1
		c0.08,0,0.16,0.01,0.23,0.04c0.07,0.03,0.14,0.08,0.2,0.14c0.06,0.07,0.1,0.15,0.14,0.25c0.03,0.1,0.05,0.23,0.05,0.37
		c0,0.04,0,0.1-0.01,0.17c0,0.07-0.01,0.15-0.02,0.24c-0.01,0.09-0.01,0.18-0.02,0.28c-0.01,0.1-0.02,0.2-0.02,0.29
		c-0.01,0.1-0.01,0.19-0.02,0.27c0,0.09-0.01,0.16-0.01,0.23c0,0.11,0,0.2,0.01,0.27c0.01,0.07,0.02,0.12,0.05,0.16
		c0.02,0.04,0.05,0.07,0.09,0.08c0.03,0.02,0.08,0.02,0.13,0.02c0.07,0,0.15-0.01,0.23-0.03c0.08-0.02,0.16-0.05,0.24-0.09
		l0.04,0.11c-0.05,0.04-0.12,0.08-0.2,0.13c-0.08,0.04-0.16,0.08-0.25,0.12c-0.09,0.04-0.17,0.07-0.26,0.09
		c-0.09,0.02-0.16,0.03-0.23,0.03c-0.08,0-0.14-0.02-0.18-0.06c-0.04-0.04-0.08-0.1-0.1-0.17c-0.02-0.07-0.04-0.15-0.04-0.25
		c-0.01-0.1-0.01-0.2-0.01-0.31c0-0.13,0-0.27,0.01-0.41c0.01-0.14,0.02-0.28,0.03-0.4c0.01-0.13,0.02-0.24,0.03-0.35
		c0.01-0.1,0.01-0.19,0.01-0.25c0-0.17-0.03-0.29-0.09-0.37c-0.06-0.08-0.15-0.12-0.25-0.12c-0.08,0-0.17,0.03-0.26,0.1
		c-0.09,0.07-0.18,0.17-0.27,0.29c-0.09,0.12-0.18,0.26-0.26,0.43c-0.08,0.17-0.16,0.35-0.22,0.54c-0.07,0.19-0.12,0.39-0.17,0.6
		c-0.05,0.21-0.07,0.42-0.08,0.63l-0.45,0.06l-0.03,0c0.01-0.14,0.02-0.28,0.03-0.44c0.01-0.16,0.02-0.32,0.03-0.48
		c0.01-0.16,0.02-0.33,0.02-0.49c0.01-0.16,0.01-0.31,0.02-0.45c0-0.14,0.01-0.27,0.01-0.38C96.15,71.57,96.16,71.48,96.16,71.41"/>
</g>
</svg>
